<?xml version="1.0" encoding="utf-8"?>
<svg version="1.1" id="Ebene_2_1_" xmlns="http://www.w3.org/2000/svg" xmlns:xlink="http://www.w3.org/1999/xlink" x="0px" y="0px"
	 viewBox="0 0 200 200" style="enable-background:new 0 0 200 200;" xml:space="preserve">
<path d="M176.8,40.6H23.2c-1.8,0-3.2,1.4-3.2,3.2v85.8v12.8c0,1.8,1.4,3.2,3.2,3.2h60.2v7H72.5c-1.8,0-3.2,1.4-3.2,3.2
	s1.4,3.2,3.2,3.2h55c1.8,0,3.2-1.4,3.2-3.2s-1.4-3.2-3.2-3.2h-10.8v-7h60.1c1.8,0,3.2-1.4,3.2-3.2v-12.8V43.8
	C180,42,178.6,40.6,176.8,40.6z M173.6,126.4H26.4V47h147.2V126.4z"/>
</svg>
