<?xml version="1.0" encoding="utf-8"?>
<svg version="1.1" id="Ebene_2_1_" xmlns="http://www.w3.org/2000/svg" xmlns:xlink="http://www.w3.org/1999/xlink" x="0px" y="0px"
	 viewBox="0 0 200 200" style="enable-background:new 0 0 200 200;" xml:space="preserve">
<g>
	<path d="M166.3,136.1H33.7c-1.5,0-2.7-1.2-2.7-2.7V59.3c0-1.5,1.2-2.7,2.7-2.7h132.5c1.5,0,2.7,1.2,2.7,2.7v74
		C169,134.8,167.8,136.1,166.3,136.1z M36.5,130.6h127V62.1h-127V130.6z"/>
</g>
<g>
	<path d="M171.8,150.4H28.2c-4.6,0-8.2-3.7-8.2-8.2c0-1.5,1.2-2.7,2.7-2.7h154.7c1.5,0,2.7,1.2,2.7,2.7
		C180.1,146.7,176.4,150.4,171.8,150.4z"/>
</g>
</svg>
