<?xml version="1.0" encoding="utf-8"?>
<!-- Generator: Adobe Illustrator 23.0.1, SVG Export Plug-In . SVG Version: 6.00 Build 0)  -->
<svg  width="101" height="101" version="1.1" id="Ebene_1" xmlns="http://www.w3.org/2000/svg" xmlns:xlink="http://www.w3.org/1999/xlink" x="0px" y="0px"
	 viewBox="0 0 101 118" style="enable-background:new 0 0 101 118;" xml:space="preserve">
<style  type="text/css">
	.st0{fill:#0B0B0B;}
	.st1{fill:none;stroke:#000000;stroke-width:5;}
	.st2{enable-background:new    ;}
	.st3{fill:#BD8C6E;}
</style>
<g id="Gruppe_402" transform="translate(-329 -935)">
	<g id="Gruppe_196" transform="translate(-1166 -696)">
		<g id="Ellipse_30" transform="translate(1495 1643)">
			<circle class="st0" cx="50.5" cy="50.5" r="50.5"/>
			<circle class="st1" cx="50.5" cy="50.5" r="48"/>
		</g>
	</g>
	<g class="st2">
		<path class="st3" d="M380,973.9c13.6,0,24.6,9,24.6,24c0,15.1-11,24.2-24.6,24.2s-24.6-9-24.6-24.2
			C355.4,982.9,366.4,973.9,380,973.9z M380,1009.8c5.6,0,8.8-4.8,8.8-11.9c0-7-3.2-11.7-8.8-11.7c-5.6,0-8.8,4.6-8.8,11.7
			C371.2,1005,374.4,1009.8,380,1009.8z"/>
	</g>
</g>
</svg>
