<?xml version="1.0" encoding="utf-8"?>
<!-- Generator: Adobe Illustrator 23.0.1, SVG Export Plug-In . SVG Version: 6.00 Build 0)  -->
<svg  width="101" height="101" version="1.1" id="Ebene_1" xmlns="http://www.w3.org/2000/svg" xmlns:xlink="http://www.w3.org/1999/xlink" x="0px" y="0px"
	 viewBox="0 0 101 118" style="enable-background:new 0 0 101 118;" xml:space="preserve">
<style type="text/css">
	.st0{fill:#0B0B0B;}
	.st1{fill:none;stroke:#000000;stroke-width:5;}
	.st2{enable-background:new    ;}
	.st3{fill:#BD8C6E;}
</style>
<g id="Gruppe_401" transform="translate(-329 -2797)">
	<g id="Gruppe_205" transform="translate(-1166 1166)">
		<g id="Ellipse_30" transform="translate(1495 1643)">
			<circle class="st0" cx="50.5" cy="50.5" r="50.5"/>
			<circle class="st1" cx="50.5" cy="50.5" r="48"/>
		</g>
	</g>
	<g class="st2">
		<path class="st3" d="M356.7,2883l-0.1-2.6c-0.8-23.8,27.4-22.2,27.4-29c0-2.2-2-3.8-6.2-3.8c-5.2,0-10.6,2.1-15.7,5.3l-5.9-10.5
			c6.2-3.8,13.9-6.6,22-6.6c13.4,0,21,5.8,21,14.6c0,15-22.3,15-26.2,21h25v11.5H356.7z"/>
	</g>
</g>
</svg>
