<?xml version="1.0" encoding="utf-8"?>
<!-- Generator: Adobe Illustrator 23.0.1, SVG Export Plug-In . SVG Version: 6.00 Build 0)  -->
<svg  width="101" height="101" version="1.1" id="Ebene_1" xmlns="http://www.w3.org/2000/svg" xmlns:xlink="http://www.w3.org/1999/xlink" x="0px" y="0px"
	 viewBox="0 0 101 119" style="enable-background:new 0 0 101 119;" xml:space="preserve">
<style type="text/css">
	.st0{fill:#0B0B0B;}
	.st1{fill:none;stroke:#000000;stroke-width:5;}
	.st2{enable-background:new    ;}
	.st3{fill:#BD8C6E;}
</style>
<g id="Gruppe_404" transform="translate(-1567 -3695)">
	<g id="Gruppe_208" transform="translate(72 2070)">
		<g id="Ellipse_30" transform="translate(1495 1643)">
			<circle class="st0" cx="50.5" cy="50.5" r="50.5"/>
			<circle class="st1" cx="50.5" cy="50.5" r="48"/>
		</g>
	</g>
	<g class="st2">
		<path class="st3" d="M1600.6,3776.3c4.8,2.5,9.5,4,14.6,4c6.3,0,10.4-2.6,10.4-6.4c0-4.6-4.2-5.9-10.1-5.9h-8.2v-10.9h7.8
			c5.4,0,8.8-1.4,8.8-5.8c0-3-2.6-5.7-7.8-5.7c-5,0-8.8,1.8-13.3,3.9l-6-10.1c6.2-3.4,12.4-5.5,20.8-5.5c13,0,21.8,6,21.8,15.5
			c0,6-3,9.1-7.6,11.8c6.6,3.3,9.4,7.7,9.4,13.5c0,11.8-12.2,17.3-25.4,17.3c-7.1,0-14.1-1.7-20.9-5L1600.6,3776.3z"/>
	</g>
</g>
</svg>
