<svg xmlns="http://www.w3.org/2000/svg" width="331" height="331" viewBox="0 0 331 331">
  <g id="Gruppe_406" data-name="Gruppe 406" transform="translate(-802 -8204)">
    <g id="Gruppe_397" data-name="Gruppe 397">
      <g id="Ellipse_42" data-name="Ellipse 42" transform="translate(802 8204)" fill="#0b0b0b" stroke="#000" stroke-width="5">
        <circle cx="165.5" cy="165.5" r="165.5" stroke="none"/>
        <circle cx="165.5" cy="165.5" r="163" fill="none"/>
      </g>
    </g>
    <g id="Gruppe_352" data-name="Gruppe 352" transform="translate(693.271 8233.214)">
      <path id="Pfad_180" data-name="Pfad 180" d="M204.3,180.257V125.546c0-67.811,60.039-65.749,62.781-65.749s62.765-2.4,62.765,65.749v54.711" transform="translate(6.681 0)" fill="none" stroke="#bd8c6e" stroke-linecap="round" stroke-linejoin="round" stroke-width="1.5"/>
      <path id="Pfad_181" data-name="Pfad 181" d="M209.357,89.219H234.27l10.372-20.744,12.208,20.752h38.256" transform="translate(21.725 25.834)" fill="none" stroke="#bd8c6e" stroke-linecap="round" stroke-linejoin="round" stroke-width="1.5"/>
      <g id="Gruppe_350" data-name="Gruppe 350" transform="translate(202.051 169.151)">
        <g id="Gruppe_348" data-name="Gruppe 348" transform="translate(96.088)">
          <path id="Pfad_182" data-name="Pfad 182" d="M226.24,87.31c-.016,6.087,0,22.1,0,22.1s-1.383,8.209,47.3,20.6" transform="translate(-226.233 -87.31)" fill="none" stroke="#bd8c6e" stroke-linecap="round" stroke-linejoin="round" stroke-width="1.5"/>
        </g>
        <g id="Gruppe_349" data-name="Gruppe 349">
          <path id="Pfad_183" data-name="Pfad 183" d="M249.355,87.31c.016,6.087,0,22.1,0,22.1s1.391,8.209-47.3,20.6" transform="translate(-202.051 -87.31)" fill="none" stroke="#bd8c6e" stroke-linecap="round" stroke-linejoin="round" stroke-width="1.5"/>
        </g>
      </g>
      <g id="Gruppe_351" data-name="Gruppe 351" transform="translate(238.392 115.418)">
        <path id="Pfad_184" data-name="Pfad 184" d="M245.083,73.787a55.14,55.14,0,0,1,1.172,13.327c0,19.081-7.49,40.239-19.693,49.394a24.67,24.67,0,0,1-3.389,1.856" transform="translate(-175.586 -73.787)" fill="none" stroke="#bd8c6e" stroke-linecap="round" stroke-linejoin="round" stroke-width="1.5"/>
        <path id="Pfad_185" data-name="Pfad 185" d="M212.413,73.787a55.91,55.91,0,0,0-1.18,13.327c0,19.081,7.5,40.239,19.7,49.394a24.67,24.67,0,0,0,3.389,1.856" transform="translate(-211.197 -73.787)" fill="none" stroke="#bd8c6e" stroke-linecap="round" stroke-linejoin="round" stroke-width="1.5"/>
      </g>
    </g>
  </g>
</svg>
