<svg xmlns="http://www.w3.org/2000/svg" width="400" height="450" viewBox="0 0 404 448">
  <g id="Gruppe_410" data-name="Gruppe 410" transform="translate(-174 -1300)">
    <g id="Rechteck_39" data-name="Rechteck 39" transform="translate(174 1300)" fill="rgba(0,0,0,0.5)" stroke="#000" stroke-width="5">
      <rect width="404" height="448" stroke="none"/>
      <rect x="2.5" y="2.5" width="399" height="443" fill="black"/>
    </g>
    <g id="Gruppe_198" data-name="Gruppe 198" transform="translate(844.625 1173.883)">
      <g id="Gruppe_197" data-name="Gruppe 197" transform="translate(-468.417 322.117)">
        <path id="Pfad_142" data-name="Pfad 142" d="M-492.941,332.683A14.344,14.344,0,0,1-478.609,347a14.349,14.349,0,0,1-14.332,14.333A14.341,14.341,0,0,1-507.258,347a14.335,14.335,0,0,1,14.317-14.322m0-10.566A24.893,24.893,0,0,0-517.824,347a24.9,24.9,0,0,0,24.883,24.9,24.9,24.9,0,0,0,24.9-24.9,24.894,24.894,0,0,0-24.9-24.888Z" transform="translate(517.824 -322.117)" fill="none" stroke="#bd8c6e" stroke-width="1"/>
      </g>
      <path id="Pfad_143" data-name="Pfad 143" d="M-601.625,437.729l81.913-87.509,82.763,87.288" transform="translate(0 16.568)" fill="none" stroke="#bd8c6e" stroke-linecap="round" stroke-linejoin="round" stroke-width="1"/>
      <path id="Pfad_144" data-name="Pfad 144" d="M-501.868,395.116l27.967-29.759,56.009,59.773" transform="translate(58.814 25.493)" fill="none" stroke="#bd8c6e" stroke-linejoin="round" stroke-width="1"/>
    </g>
  </g>
</svg>
