<svg xmlns="http://www.w3.org/2000/svg" width="230" height="450" viewBox="0 0 232 448">
  <g id="Gruppe_412" data-name="Gruppe 412" transform="translate(-1490 -1300)">
    <g id="Rechteck_41" data-name="Rechteck 41" transform="translate(1490 1300)" fill="rgba(0,0,0,0.5)" stroke="#000" stroke-width="5">
      <rect width="232" height="448" stroke="none"/>
      <rect x="2.5" y="2.5" width="227" height="443" fill="black"/>
    </g>
    <g id="Gruppe_200" data-name="Gruppe 200" transform="translate(2146.625 1168.883)">
      <g id="Gruppe_197" data-name="Gruppe 197" transform="translate(-535.021 322.117)">
        <path id="Pfad_142" data-name="Pfad 142" d="M-505.382,327.4a7.172,7.172,0,0,1,7.166,7.161,7.175,7.175,0,0,1-7.166,7.167,7.17,7.17,0,0,1-7.159-7.167,7.168,7.168,0,0,1,7.159-7.161m0-5.283a12.447,12.447,0,0,0-12.442,12.444,12.447,12.447,0,0,0,12.442,12.45,12.448,12.448,0,0,0,12.449-12.45,12.447,12.447,0,0,0-12.449-12.444Z" transform="translate(517.824 -322.117)" fill="none" stroke="#bd8c6e" stroke-width="1"/>
      </g>
      <path id="Pfad_143" data-name="Pfad 143" d="M-601.625,393.974l40.956-43.755,41.381,43.644" transform="translate(0 -5.767)" fill="none" stroke="#bd8c6e" stroke-linecap="round" stroke-linejoin="round" stroke-width="1"/>
      <path id="Pfad_144" data-name="Pfad 144" d="M-501.868,380.237l13.984-14.879,28,29.887" transform="translate(-20.472 -8.873)" fill="none" stroke="#bd8c6e" stroke-linejoin="round" stroke-width="1"/>
    </g>
  </g>
</svg>
