<svg id="Ebene_1" data-name="Ebene 1" xmlns="http://www.w3.org/2000/svg" viewBox="0 0 100 100"><defs><style>.cls-1{fill:#604738;stroke:#bd8c6e;stroke-miterlimit:10;stroke-width:5px;}</style></defs><title>DO</title><circle class="cls-1" cx="50" cy="50" r="47.5"/><path d="M21.71,38H31.6c10.22,0,15.61,5.06,15.61,13.76,0,9-5,14.17-15.61,14.17H21.71ZM32.32,59.81c4.79,0,7.14-3.07,7.14-8,0-4.71-2.55-7.74-7.14-7.74H29.41V59.81Z"/><path d="M64.48,37.47c9,0,14.77,6.5,14.77,14.48S73.54,66.44,64.48,66.44,49.72,59.93,49.72,52,55.51,37.47,64.48,37.47Zm0,22.54c4.43,0,7-3.47,7-8.06s-2.52-8.06-7-8.06S57.54,47.36,57.54,52,60.09,60,64.48,60Z"/></svg>