<svg xmlns="http://www.w3.org/2000/svg" width="101" height="101" viewBox="0 0 101 101">
  <g id="Gruppe_373" data-name="Gruppe 373" transform="translate(-468 -3903)">
    <g id="Ellipse_2" data-name="Ellipse 2" transform="translate(468 3903)" fill="#0b0b0b" stroke="#000" stroke-width="5">
      <circle cx="50.5" cy="50.5" r="50.5" stroke="none"/>
      <circle cx="50.5" cy="50.5" r="48" fill="none"/>
    </g>
    <g id="Gruppe_109" data-name="Gruppe 109" transform="translate(313.198 4074.126)">
      <path id="Pfad_78" data-name="Pfad 78" d="M209.4-112.764s7.661,1.081,10.054-4.771c0,0,2.564,4.734,6.31,4.734" transform="translate(-2.975 -3.405)" fill="none" stroke="#bd8c6e" stroke-linecap="round" stroke-linejoin="round" stroke-width="1.5"/>
      <g id="Gruppe_108" data-name="Gruppe 108" transform="translate(195.651 -127.167)">
        <g id="Gruppe_106" data-name="Gruppe 106" transform="translate(0 25.278)">
          <path id="Pfad_79" data-name="Pfad 79" d="M208.275-96.183c0,1.407,0,4.445,0,4.445s.32,1.9-10.951,4.766" transform="translate(-197.324 96.183)" fill="none" stroke="#bd8c6e" stroke-linecap="round" stroke-linejoin="round" stroke-width="1.5"/>
        </g>
        <g id="Gruppe_107" data-name="Gruppe 107" transform="translate(6.077)">
          <path id="Pfad_80" data-name="Pfad 80" d="M222.58-96.183c-.006,1.407,0,4.445,0,4.445s-.321,1.9,10.949,4.766" transform="translate(-206.123 121.461)" fill="none" stroke="#bd8c6e" stroke-linecap="round" stroke-linejoin="round" stroke-width="1.5"/>
          <path id="Pfad_81" data-name="Pfad 81" d="M218.292-98.541a5.759,5.759,0,0,0,2.309-1.049c2.585-1.837,4.19-7.6,4.672-11.632.713-5.946-.081-13.056-10.443-13.291h-.06c-10.361.236-11.154,7.346-10.441,13.291.483,4.035,2.086,9.795,4.672,11.632a5.768,5.768,0,0,0,2.308,1.049" transform="translate(-204.135 124.514)" fill="none" stroke="#bd8c6e" stroke-linecap="round" stroke-linejoin="round" stroke-width="1.5"/>
        </g>
      </g>
      <path id="Pfad_82" data-name="Pfad 82" d="M196.888-123.922l-8.986,5.179,2.361-11.147-8.461-7.631,11.332-1.2,4.64-10.406,4.641,10.406,11.332,1.2-6.475,5.907" fill="none" stroke="#bd8c6e" stroke-linejoin="round" stroke-width="1.5"/>
    </g>
  </g>
</svg>
