<svg xmlns="http://www.w3.org/2000/svg" width="101" height="101" viewBox="0 0 101 101">
  <g id="Gruppe_383" data-name="Gruppe 383" transform="translate(-1024 -4279)">
    <g id="Ellipse_7" data-name="Ellipse 7" transform="translate(1024 4279)" fill="#0b0b0b" stroke="#000" stroke-width="5">
      <circle cx="50.5" cy="50.5" r="50.5" stroke="none"/>
      <circle cx="50.5" cy="50.5" r="48" fill="none"/>
    </g>
    <g id="Gruppe_84" data-name="Gruppe 84" transform="translate(739.829 4151.182)">
      <path id="Pfad_50" data-name="Pfad 50" d="M333.767,159.934c-2.585,3.261-8.134,2.979-8.134,2.979s-.156-6.142,2.874-8.342c2.29-1.666,8.38-2.753,8.38-2.753S335.638,157.57,333.767,159.934Z" transform="translate(-1.967)" fill="none" stroke="#bd8c6e" stroke-linecap="round" stroke-linejoin="round" stroke-width="1.5"/>
      <path id="Pfad_51" data-name="Pfad 51" d="M314.411,174.191c-1.8.67-3.6,2.3-4.481,5.932" transform="translate(-0.528 -2.051)" fill="none" stroke="#bd8c6e" stroke-linecap="round" stroke-linejoin="round" stroke-width="1.5"/>
      <path id="Pfad_52" data-name="Pfad 52" d="M337.929,169.859c-4.057-2.69-8.879-.923-8.879-.923a30.289,30.289,0,0,1-5.3.691h-.439a30.283,30.283,0,0,1-5.3-.691s-10.567-3.87-13.575,8.568c0,0-2.455,12.856,7.568,21.839,0,0,2.867,3.335,7.721,1.174a13.079,13.079,0,0,1,3.768-.9h.078a13.061,13.061,0,0,1,3.767.9,8.333,8.333,0,0,0,2.269.666" transform="translate(0 -1.517)" fill="none" stroke="#bd8c6e" stroke-linejoin="round" stroke-width="1.5"/>
      <path id="Pfad_53" data-name="Pfad 53" d="M319.58,156.724s3.266,1.116,5.461,6.4" transform="translate(-1.413 -0.45)" fill="none" stroke="#bd8c6e" stroke-linecap="round" stroke-linejoin="round" stroke-width="1.5"/>
      <line id="Linie_10" data-name="Linie 10" x1="1.309" y2="7.863" transform="translate(352.656 153.615)" fill="none" stroke="#bd8c6e" stroke-linecap="round" stroke-miterlimit="10" stroke-width="1.5"/>
      <line id="Linie_11" data-name="Linie 11" x1="5.088" y2="5.391" transform="translate(359.69 159.296)" fill="none" stroke="#bd8c6e" stroke-linecap="round" stroke-miterlimit="10" stroke-width="1.5"/>
      <line id="Linie_12" data-name="Linie 12" y1="10.105" x2="4.813" transform="translate(356.282 152.506)" fill="none" stroke="#bd8c6e" stroke-linecap="round" stroke-miterlimit="10" stroke-width="1.5"/>
      <path id="Pfad_54" data-name="Pfad 54" d="M360.835,164.535l-.451-.241-.023-.015-.454-.242s-9.219-4.717-12.151,1.362c0,0-9.564,21.5-11.116,39.094a2.51,2.51,0,0,0,1,2l-.012.026c.039.02.077.028.118.046s.068.053.109.074l.014-.025a2.507,2.507,0,0,0,2.214-.276c13.779-11.051,26.361-30.935,26.361-30.935C369.878,169.59,360.835,164.535,360.835,164.535Z" transform="translate(-2.976 -0.96)" fill="none" stroke="#bd8c6e" stroke-linejoin="round" stroke-width="1.5"/>
      <path id="Pfad_55" data-name="Pfad 55" d="M362.51,185.491a10.317,10.317,0,0,1-6.465-1.839" transform="translate(-4.755 -2.918)" fill="none" stroke="#bd8c6e" stroke-linecap="round" stroke-miterlimit="10" stroke-width="1.5"/>
      <path id="Pfad_56" data-name="Pfad 56" d="M342.98,181.347a11.161,11.161,0,0,0,5.524,4.712" transform="translate(-3.558 -2.707)" fill="none" stroke="#bd8c6e" stroke-linecap="round" stroke-miterlimit="10" stroke-width="1.5"/>
      <path id="Pfad_57" data-name="Pfad 57" d="M346.18,172.472a6.932,6.932,0,0,0,3.438,2.929" transform="translate(-3.851 -1.893)" fill="none" stroke="#bd8c6e" stroke-linecap="round" stroke-miterlimit="10" stroke-width="1.5"/>
      <path id="Pfad_58" data-name="Pfad 58" d="M339.541,193.326a8.218,8.218,0,0,0,3.689,3.106" transform="translate(-3.242 -3.805)" fill="none" stroke="#bd8c6e" stroke-linecap="round" stroke-miterlimit="10" stroke-width="1.5"/>
      <path id="Pfad_59" data-name="Pfad 59" d="M355.989,194.13a8.6,8.6,0,0,1-4.844-1.316" transform="translate(-4.306 -3.758)" fill="none" stroke="#bd8c6e" stroke-linecap="round" stroke-miterlimit="10" stroke-width="1.5"/>
    </g>
  </g>
</svg>
