<svg xmlns="http://www.w3.org/2000/svg" width="101" height="101" viewBox="0 0 101 101">
  <g id="Gruppe_380" data-name="Gruppe 380" transform="translate(-1024 -4029)">
    <g id="Ellipse_8" data-name="Ellipse 8" transform="translate(1024 4029)" fill="#0b0b0b" stroke="#000" stroke-width="5">
      <circle cx="50.5" cy="50.5" r="50.5" stroke="none"/>
      <circle cx="50.5" cy="50.5" r="48" fill="none"/>
    </g>
    <g id="Gruppe_105" data-name="Gruppe 105" transform="translate(867.172 3786.034)">
      <path id="Pfad_72" data-name="Pfad 72" d="M223.631,272.513h3.928a3.123,3.123,0,0,1,3.2,3.017v45.418a3.124,3.124,0,0,1-3.2,3.018H188.032a3.124,3.124,0,0,1-3.2-3.018V275.53a3.123,3.123,0,0,1,3.2-3.017h3.928" fill="none" stroke="#bd8c6e" stroke-linejoin="round" stroke-width="1.5"/>
      <path id="Pfad_73" data-name="Pfad 73" d="M218.476,269.2h-5.352a5.33,5.33,0,0,0-10.659,0h-5.349v6.9h21.36Z" fill="none" stroke="#bd8c6e" stroke-linecap="round" stroke-miterlimit="10" stroke-width="1.5"/>
      <g id="Gruppe_102" data-name="Gruppe 102" transform="translate(191.962 282.143)">
        <path id="Pfad_74" data-name="Pfad 74" d="M205.382,293.425v4.826h-13.42v-13.42h8.65" transform="translate(-191.962 -283.428)" fill="none" stroke="#bd8c6e" stroke-linecap="round" stroke-linejoin="round" stroke-width="1.5"/>
        <path id="Pfad_75" data-name="Pfad 75" d="M196.23,289.54l3.578,3.937,7.778-10.049" transform="translate(-191.962 -283.428)" fill="none" stroke="#bd8c6e" stroke-linecap="round" stroke-linejoin="round" stroke-width="1.5"/>
        <g id="Gruppe_101" data-name="Gruppe 101" transform="translate(20.266 5.108)">
          <line id="Linie_29" data-name="Linie 29" x2="12.949" fill="none" stroke="#bd8c6e" stroke-miterlimit="10" stroke-width="1.5"/>
          <line id="Linie_30" data-name="Linie 30" x2="8.336" transform="translate(0 6.008)" fill="none" stroke="#bd8c6e" stroke-miterlimit="10" stroke-width="1.5"/>
        </g>
      </g>
      <g id="Gruppe_104" data-name="Gruppe 104" transform="translate(191.962 302.012)">
        <path id="Pfad_76" data-name="Pfad 76" d="M205.382,315.2v4.826h-13.42v-13.42h8.65" transform="translate(-191.962 -305.205)" fill="none" stroke="#bd8c6e" stroke-linecap="round" stroke-linejoin="round" stroke-width="1.5"/>
        <path id="Pfad_77" data-name="Pfad 77" d="M196.23,311.317l3.578,3.936,7.778-10.049" transform="translate(-191.962 -305.205)" fill="none" stroke="#bd8c6e" stroke-linecap="round" stroke-linejoin="round" stroke-width="1.5"/>
        <g id="Gruppe_103" data-name="Gruppe 103" transform="translate(20.266 5.108)">
          <line id="Linie_31" data-name="Linie 31" x2="12.949" fill="none" stroke="#bd8c6e" stroke-miterlimit="10" stroke-width="1.5"/>
          <line id="Linie_32" data-name="Linie 32" x2="8.336" transform="translate(0 6.008)" fill="none" stroke="#bd8c6e" stroke-miterlimit="10" stroke-width="1.5"/>
        </g>
      </g>
    </g>
  </g>
</svg>
