<svg id="Ebene_1" width="101" height="101" data-name="Ebene 1" xmlns="http://www.w3.org/2000/svg" xmlns:xlink="http://www.w3.org/1999/xlink" viewBox="0 0 101 101"><defs><style>.cls-1,.cls-3{fill:none;}.cls-2{fill:#bd8c6e;}.cls-3{stroke:#000;stroke-width:5px;}.cls-4{clip-path:url(#clip-path);}.cls-5{fill:#0b0b0b;}</style><clipPath id="clip-path"><rect class="cls-1" x="22.48" y="22.48" width="56.05" height="56.03"/></clipPath></defs><title>Instagram</title><g id="Ellipse_84" data-name="Ellipse 84"><circle class="cls-2" cx="50.5" cy="50.5" r="50.5"/><circle class="cls-3" cx="50.5" cy="50.5" r="48"/></g><g id="Gruppe_38" data-name="Gruppe 38"><g class="cls-4"><g id="Gruppe_39" data-name="Gruppe 39"><g id="Gruppe_38-2" data-name="Gruppe 38-2"><path id="Pfad_34" data-name="Pfad 34" class="cls-5" d="M50.51,36.13a14.34,14.34,0,1,0,.05,0h-.05m0,23.71a9.34,9.34,0,1,1,9.34-9.34h0a9.36,9.36,0,0,1-9.34,9.34m18.3-24.3a3.35,3.35,0,1,1-3.35-3.35h0a3.34,3.34,0,0,1,3.35,3.33v0m9.52,3.4c-.22-4.48-1.24-8.46-4.53-11.73s-7.25-4.3-11.74-4.53-18.49-.26-23.12,0c-4.48.21-8.45,1.24-11.74,4.51s-4.3,7.25-4.53,11.74-.26,18.49,0,23.12,1.24,8.46,4.53,11.74,7.25,4.3,11.74,4.53,18.49.26,23.12,0,8.47-1.24,11.74-4.53,4.3-7.25,4.53-11.74.26-18.48,0-23.11M72.35,67A9.42,9.42,0,0,1,67,72.34c-3.68,1.47-12.44,1.13-16.51,1.13S37.67,73.79,34,72.34A9.45,9.45,0,0,1,28.66,67c-1.46-3.69-1.12-12.44-1.12-16.52S27.21,37.66,28.66,34A9.45,9.45,0,0,1,34,28.66c3.69-1.47,12.44-1.13,16.52-1.13S63.35,27.21,67,28.66A9.45,9.45,0,0,1,72.35,34c1.46,3.69,1.13,12.44,1.13,16.52S73.82,63.34,72.36,67"/></g></g></g></g></svg>