<svg id="Ebene_1" width="101" height="101" data-name="Ebene 1" xmlns="http://www.w3.org/2000/svg" viewBox="0 0 101 101"><defs><style>.cls-1{fill:#0b0b0b;}.cls-2,.cls-3,.cls-4{fill:none;}.cls-2{stroke:#000;stroke-width:5px;}.cls-3,.cls-4{stroke:#bd8c6e;stroke-width:1.5px;}.cls-3{stroke-linejoin:round;}.cls-4{stroke-miterlimit:10;}</style></defs><title>Kleingruppenkurse-im-Bereich-CrossFit</title><g id="Ellipse_84" data-name="Ellipse 84"><circle class="cls-1" cx="50.5" cy="50.5" r="50.5"/><circle class="cls-2" cx="50.5" cy="50.5" r="48"/></g><g id="Gruppe_113" data-name="Gruppe 113"><g id="Gruppe_110" data-name="Gruppe 110"><path id="Pfad_83" data-name="Pfad 83" class="cls-3" d="M38.4,69.11v-4c0-4.85,3.51-6.64,8-6.64L52,64.53l5.16-6.11c4.51,0,8.42,1.79,8.42,6.64v4"/><path id="Pfad_84" data-name="Pfad 84" class="cls-4" d="M58.26,46.75a6.29,6.29,0,1,1-12.57,0V44.38a6.29,6.29,0,1,1,12.57,0Z"/></g><g id="Gruppe_111" data-name="Gruppe 111"><path id="Pfad_85" data-name="Pfad 85" class="cls-3" d="M16.76,63V59c0-4.85,3.52-6.64,8-6.64l5.56,6.11,5.15-6.11a11.91,11.91,0,0,1,4.79.88"/><path id="Pfad_86" data-name="Pfad 86" class="cls-4" d="M36.62,40.63a6.28,6.28,0,1,1-12.56,0V38.27a6.28,6.28,0,1,1,12.56,0Z"/></g><g id="Gruppe_112" data-name="Gruppe 112"><path id="Pfad_87" data-name="Pfad 87" class="cls-3" d="M84.24,63.25v-4c0-4.85-3.51-6.64-8-6.64l-5.56,6.11L65.5,52.56a11.91,11.91,0,0,0-4.79.88"/><path id="Pfad_88" data-name="Pfad 88" class="cls-4" d="M64.38,40.88a6.28,6.28,0,1,0,12.56,0V38.52a6.28,6.28,0,1,0-12.56,0Z"/></g></g></svg>