<svg xmlns="http://www.w3.org/2000/svg" width="98" height="98" viewBox="0 0 98 98">
  <g id="Gruppe_360" data-name="Gruppe 360" transform="translate(0 -544)">
    <g id="Rechteck_31" data-name="Rechteck 31" transform="translate(0 544)" fill="rgba(0,0,0,0.5)" stroke="#000" stroke-width="5">
      <rect width="98" height="98" stroke="none"/>
      <rect x="2.5" y="2.5" width="93" height="93" fill="none"/>
    </g>
    <g id="Gruppe_155" data-name="Gruppe 155" transform="translate(-30.455 524.892)">
      <g id="Gruppe_152" data-name="Gruppe 152">
        <path id="Pfad_128" data-name="Pfad 128" d="M89.259,98.775H57.377a9.95,9.95,0,0,1-9.922-9.921v-.971a9.951,9.951,0,0,1,9.922-9.921h8.805a5.689,5.689,0,0,0,5.67-5.672V70.327a5.686,5.686,0,0,0-5.67-5.669H62.271" fill="none" stroke="#bd8c6e" stroke-linecap="round" stroke-linejoin="round" stroke-width="2.5"/>
      </g>
      <path id="Pfad_129" data-name="Pfad 129" d="M110.523,65.791c0,8.186-14.824,33.15-14.824,33.15S80.876,73.977,80.876,65.791a14.824,14.824,0,1,1,29.647,0Z" fill="none" stroke="#bd8c6e" stroke-linejoin="round" stroke-width="2.5"/>
      <path id="Pfad_130" data-name="Pfad 130" d="M102.029,65.791a6.329,6.329,0,1,1-6.33-6.332A6.331,6.331,0,0,1,102.029,65.791Z" fill="none" stroke="#bd8c6e" stroke-linejoin="round" stroke-width="2.5"/>
      <path id="Pfad_131" data-name="Pfad 131" d="M64.4,46.3c0,4.526-8.195,18.326-8.195,18.326s-8.194-13.8-8.194-18.326a8.194,8.194,0,1,1,16.389,0Z" fill="none" stroke="#bd8c6e" stroke-linejoin="round" stroke-width="2.5"/>
      <g id="Gruppe_154" data-name="Gruppe 154">
        <g id="Gruppe_153" data-name="Gruppe 153">
          <path id="Pfad_132" data-name="Pfad 132" d="M57.151,45.768a.945.945,0,1,1-.944-.947A.942.942,0,0,1,57.151,45.768Z" fill="none" stroke="#bd8c6e" stroke-miterlimit="10" stroke-width="2.5"/>
        </g>
      </g>
    </g>
  </g>
</svg>
