<svg xmlns="http://www.w3.org/2000/svg" width="101" height="101" viewBox="0 0 101 101">
  <g id="Gruppe_391" data-name="Gruppe 391" transform="translate(-1251 -3613)">
    <g id="Ellipse_84" data-name="Ellipse 84" transform="translate(1251 3613)" fill="#0b0b0b" stroke="#000" stroke-width="5">
      <circle cx="50.5" cy="50.5" r="50.5" stroke="none"/>
      <circle cx="50.5" cy="50.5" r="48" fill="none"/>
    </g>
    <g id="Gruppe_361" data-name="Gruppe 361" transform="translate(1098.612 3601.27)">
      <path id="Pfad_186" data-name="Pfad 186" d="M225.108,52.9l4.388-5.561a4.807,4.807,0,1,0-4.881-4.22l-9.187,9.844" transform="translate(-5.967)" fill="none" stroke="#bd8c6e" stroke-linejoin="round" stroke-width="1.5"/>
      <path id="Pfad_187" data-name="Pfad 187" d="M182.06,66.746a20.46,20.46,0,0,0,11.966,18.6,21.835,21.835,0,0,0-6.679,5.307H218.33a21.859,21.859,0,0,0-6.683-5.307,20.457,20.457,0,0,0,11.968-18.6" transform="translate(-0.733 -4.552)" fill="none" stroke="#bd8c6e" stroke-linejoin="round" stroke-width="1.5"/>
      <path id="Pfad_188" data-name="Pfad 188" d="M184.921,65.574h-4.738a2.554,2.554,0,1,1,0-5.085h43.844a2.554,2.554,0,1,1,0,5.085H209.981" transform="translate(0 -3.57)" fill="none" stroke="#bd8c6e" stroke-linecap="round" stroke-linejoin="round" stroke-width="1.5"/>
    </g>
  </g>
</svg>
