<?xml version="1.0" encoding="utf-8"?>
<!-- Generator: Adobe Illustrator 22.0.1, SVG Export Plug-In . SVG Version: 6.00 Build 0)  -->
<svg version="1.1" id="Ebene_1" xmlns="http://www.w3.org/2000/svg" xmlns:xlink="http://www.w3.org/1999/xlink" x="0px" y="0px"
	 viewBox="0 0 400 400" style="enable-background:new 0 0 400 400;" xml:space="preserve">
<style type="text/css">
	.st0{stroke:#FFFFFF;stroke-width:5;stroke-miterlimit:10;}
	.st1{enable-background:new    ;}
	.st2{fill:#FFFFFF;}
</style>
<circle class="st0" cx="200" cy="200" r="197.5"/>
<g class="st1">
	<path class="st2" d="M196.2,194.1c-9.7,0-18.3-3.4-25.8-10.1c-7.4-6.7-11.2-15.6-11.2-26.5c0-9.4,1.9-18.3,5.7-26.8
		c3.8-8.5,8.9-16,15.4-22.4c6.4-6.4,13.3-12,20.6-16.7c7.3-4.7,14.9-8.7,22.9-12c0.6,0.1,1.1,0.4,1.5,1c0.4,0.5,0.7,1,0.9,1.5
		c0.2,0.5,0.3,1.1,0.4,1.9c0.1,0.8,0.2,1.3,0.4,1.6c-9.8,4.2-18.3,10-25.5,17.5c-7.1,7.4-12.1,15.4-14.8,23.8
		c-0.4,1.6-0.2,2.9,0.4,3.7c3.4-1.4,6.7-2.1,10-2.1c9.3,0,17.2,3.1,23.8,9.4c6.6,6.3,9.9,13.7,9.9,22.4c0,8.9-3.5,16.8-10.4,23.6
		C213.6,190.7,205.5,194.1,196.2,194.1z M183,159.6c0,16.9,4.5,25.3,13.4,25.3c4,0,6.8-1.8,8.4-5.4c1.6-3.6,2.5-9.5,2.5-17.6
		c0-8-1.2-14-3.5-18.1c-2.3-4.1-6.3-6.2-11.8-6.2c-4.3,0-6.9,1.6-7.7,4.9C183.6,145.2,183.2,150.9,183,159.6z"/>
</g>
<g class="st1">
	<path class="st2" d="M83.6,267.3c0-8.1,2.8-15,8.2-20.9s12.2-8.8,20-8.8c6.2,0,12.8,0.8,19.7,2.5c0.3,0.1,0.7,2.2,1.2,6.5
		c0.5,4.3,0.8,6.8,0.8,7.6c0,0.5-0.5,0.7-1.5,0.7c-1.2,0-2.1-0.1-2.7-0.4c-0.3-1.1-0.7-2.2-1.4-3.4c-0.6-1.1-1.6-2.4-2.8-3.9
		c-1.3-1.4-3-2.6-5.2-3.5c-2.2-0.9-4.8-1.3-7.6-1.3c-10.3,0-15.5,7.6-15.5,22.9c0,4.3,0.6,8.3,1.7,12s3.1,6.9,5.9,9.6
		c2.8,2.7,6.4,4,10.6,4c2.5,0,4.4-0.5,5.5-1.4c0.6-0.5,0.9-1.4,0.9-2.6v-5.4V281c0-2.9-0.2-5.1-0.6-6.6c-0.5-1.5-2.3-2.3-5.7-2.3
		c-0.2,0-0.4-0.5-0.4-1.4c0-0.9,0.1-1.5,0.3-1.8c1,0.1,2.4,0.1,4.1,0.2c1.7,0.1,3.2,0.2,4.6,0.2c1.4,0.1,2.8,0.1,4.1,0.1
		c0.9,0,4.7-0.2,11.6-0.5c0.2,0.5,0.3,1.1,0.3,1.7c0,1-0.1,1.5-0.3,1.5c-1.3,0-2.8,0.4-4.6,1.3c-0.9,0.5-1.4,2.7-1.4,6.8v5
		c0,1,0.1,1.8,0.3,2.3s0.3,0.8,0.3,0.9c0,1-0.6,1.8-1.8,2.4c-2.1,1.1-3.8,1.9-4.9,2.4c-1.2,0.5-3.3,1-6.3,1.6s-6.4,0.9-10.1,0.9
		c-7.6,0-14-2.8-19.3-8.5C86.2,281.7,83.6,275,83.6,267.3z"/>
	<path class="st2" d="M163.6,256.4c4,0,7.1,1.1,9.2,3.3c2.1,2.2,3.2,6.2,3.2,12v13.9c0,1.9,0.7,2.9,2.1,2.9c1,0,1.9-0.4,2.9-1.1
		c0.4,0.2,0.6,0.7,0.6,1.3c0,1.4-0.2,2.5-0.6,3.2c-0.8,0.7-2.1,1.5-3.9,2.4s-3.5,1.2-5.1,1.2c-1.4,0-2.7-0.4-4-1.2
		c-1.3-0.8-2.1-1.8-2.5-2.9c-0.1,0-0.3,0.2-0.7,0.5c-0.4,0.3-0.9,0.7-1.5,1.1c-0.6,0.4-1.4,0.8-2.2,1.2c-0.8,0.4-1.8,0.7-3,1
		c-1.1,0.3-2.3,0.4-3.4,0.4c-3.2,0-5.7-0.9-7.5-2.6c-1.9-1.7-2.8-3.9-2.8-6.6c0-1.5,0.4-3,1.1-4.3c0.7-1.3,1.5-2.3,2.5-3.2
		c0.9-0.8,2.2-1.6,3.8-2.3c1.6-0.7,3-1.3,4.1-1.6c1.1-0.4,2.6-0.8,4.4-1.3c1.8-0.5,3.1-0.8,3.7-1.1c0.5-0.2,0.8-0.6,0.8-1.3v-3.1
		c0-4.7-1.4-7-4.3-7c-3.3,0-5,1.9-5,5.8c0,1.3-0.5,2.2-1.5,2.8s-2.2,0.9-3.4,0.9c-2.6,0-4.4-0.9-5.4-2.6c0-2.9,1.9-5.6,5.8-8
		C154.8,257.6,159,256.4,163.6,256.4z M146.6,249.4c-1.2-1.2-1.8-2.7-1.8-4.4s0.6-3.2,1.8-4.3c1.2-1.2,2.6-1.8,4.3-1.8
		s3.2,0.6,4.4,1.8c1.2,1.2,1.8,2.6,1.8,4.3s-0.6,3.2-1.8,4.4s-2.7,1.8-4.4,1.8S147.8,250.6,146.6,249.4z M160.1,289.4
		c1.5,0,2.6-0.4,3.5-1.1c0.8-0.7,1.2-1.6,1.2-2.6V277c-0.1,0.1-0.7,0.2-1.7,0.6c-1,0.3-1.6,0.5-1.9,0.6c-0.3,0.1-0.8,0.3-1.6,0.6
		c-0.8,0.3-1.4,0.6-1.7,0.9c-0.3,0.3-0.7,0.6-1.2,1c-0.5,0.4-0.8,0.8-0.9,1.3c-0.2,0.5-0.3,1-0.3,1.5c0,2.1,0.4,3.6,1.3,4.5
		C157.8,289,158.9,289.4,160.1,289.4z M165.7,249.4c-1.2-1.2-1.8-2.7-1.8-4.4s0.6-3.2,1.8-4.3c1.2-1.2,2.7-1.8,4.4-1.8
		s3.2,0.6,4.4,1.8c1.2,1.2,1.8,2.6,1.8,4.3s-0.6,3.2-1.8,4.4s-2.7,1.8-4.4,1.8S166.9,250.6,165.7,249.4z"/>
	<path class="st2" d="M217,256.7c3.3,0,6,1.4,8.1,4.2c2.1,2.8,3.1,7.1,3.1,12.8v8.5c0,3.7,0.2,6.3,0.6,7.8c0.1,0.4,0.9,0.9,2.4,1.4
		c1.5,0.5,2.5,0.8,3,0.8c0.2,0,0.3,0.5,0.3,1.4c0,0.9,0,1.5-0.1,1.8c-0.6-0.1-2.4-0.2-5.4-0.4c-3-0.2-5.1-0.3-6.4-0.3
		c-1.4,0-3.5,0.1-6.2,0.3c-2.8,0.2-4.5,0.3-5.2,0.4c-0.2-0.2-0.3-0.8-0.3-1.8s0.1-1.4,0.3-1.4c0.6,0,1.6-0.3,3-0.8s2.1-1,2.2-1.4
		c0.4-1.7,0.6-3.9,0.6-6.5v-7.7c0-4.2-0.6-7.3-1.8-9.1c-1.2-1.8-3.1-2.7-5.6-2.7c-1.8,0-3.2,0.3-4.3,1c-1.1,0.7-1.6,1.6-1.6,2.8
		v14.4c0,3.7,0.2,6.3,0.6,7.8c0.1,0.4,0.9,0.9,2.3,1.4c1.4,0.5,2.3,0.8,2.8,0.8c0.2,0,0.3,0.5,0.3,1.4c0,0.9,0,1.5-0.1,1.8
		c-0.7-0.1-2.4-0.2-5.2-0.4c-2.8-0.2-4.9-0.3-6.2-0.3c-1.4,0-3.5,0.1-6.4,0.3s-4.7,0.3-5.3,0.4c-0.2-0.2-0.3-0.8-0.3-1.8
		s0.1-1.4,0.3-1.4c0.6,0,1.7-0.3,3.2-0.8c1.5-0.5,2.3-1,2.4-1.4c0.4-1.7,0.6-3.9,0.6-6.5v-11.8c0-3.2-0.5-5.4-1.5-6.4
		c-0.4-0.5-1-0.8-1.8-1.1c-0.8-0.3-1.5-0.5-2.1-0.6c-0.6-0.1-0.9-0.2-0.9-0.3c0-2,0.1-3,0.4-3c0.7,0,1.8-0.2,3.4-0.5
		c1.6-0.3,3.7-0.8,6.3-1.3c2.6-0.6,4.6-1,6-1.3c0.1,0,0.2,0,0.4-0.1c0.1-0.1,0.3-0.1,0.4-0.1l0.2-0.1c0.3,0,0.6,0.2,0.9,0.6
		c0.3,0.4,0.4,0.7,0.4,0.9c-0.2,1.6-0.3,2.5-0.3,2.7c0,0.3,0,0.5,0.1,0.5c0.1,0,0.3-0.1,0.6-0.4C208.3,258.2,212.3,256.7,217,256.7z
		"/>
	<path class="st2" d="M256.4,256.4c2.1,0,4.5,0.4,7.3,1.1c2.8,0.7,5,1.1,6.7,1.1h4.7c0.2,0.1,0.5,0.6,0.9,1.5c0.5,1,0.7,1.7,0.7,2.1
		c0,0.8-0.2,1.2-0.5,1.2h-5.1c-0.2,0.1-0.3,0.1-0.3,0.3c0,0.1,0.2,0.8,0.6,2.4c0.4,1.5,0.6,2.9,0.6,4.3c0,3.6-1.5,6.9-4.4,9.9
		c-2.9,3-6.6,4.5-11,4.5c-2.3,0-4.2-0.1-5.8-0.4c-0.7,0.2-1.2,0.6-1.5,1.2c-0.3,0.5-0.5,1-0.5,1.4c0,0.4,0.3,0.7,0.9,1
		c0.6,0.3,1.4,0.5,2.6,0.6c1.2,0.1,2.2,0.3,3.1,0.3c0.9,0.1,2.2,0.2,3.8,0.2c1.7,0.1,2.7,0.1,3.2,0.1c9.2,0.5,13.8,3.5,13.8,9
		c0.1,4.2-2.2,7.8-6.8,11c-4.6,3.1-9.5,4.7-14.7,4.7c-4.4,0-8-0.9-11-2.6c-3-1.7-4.5-4-4.5-6.9c0-1.3,0.7-2.6,2-4
		c1.3-1.4,3-2.5,5-3.1c-1.5-0.6-2.8-1.6-4-3.1s-1.8-2.9-1.8-4.6c0-0.7,0.2-1.5,0.6-2.1c0.4-0.7,1-1.4,1.9-2c0.9-0.7,1.5-1.1,1.9-1.3
		c0.4-0.2,1.1-0.6,2.1-1.2c-1.7-0.9-3.2-2.5-4.6-4.9s-2.1-4.7-2.1-7.2c0-4.7,1.6-8.3,4.7-10.7C248.1,257.6,251.9,256.4,256.4,256.4z
		 M266.2,302c0-2.6-4.8-3.9-14.4-3.9c-0.2,0.1-0.3,0.1-0.3,0.1c-1.9,0.6-3,1.3-3.4,1.9c-0.4,0.5-0.6,1.3-0.6,2.3
		c0,1.7,0.9,3.2,2.7,4.3c1.8,1.2,3.8,1.8,6.1,1.8c3,0,5.4-0.5,7.3-1.6C265.2,305.8,266.2,304.1,266.2,302z M251.4,269.7
		c0,1.5,0.1,2.8,0.2,3.8c0.1,1.1,0.3,2.1,0.6,3.3c0.3,1.1,0.8,2,1.5,2.5c0.7,0.6,1.6,0.9,2.7,0.9c1.1,0,2-0.2,2.6-0.6
		c0.7-0.4,1.1-1.1,1.4-2c0.3-0.9,0.4-1.8,0.5-2.5s0.1-1.8,0.1-3.1c0-3.7-0.3-6.4-1-8.2c-0.7-1.8-2.1-2.8-4.1-2.8
		c-1,0-1.9,0.3-2.5,0.8c-0.7,0.5-1.1,1.3-1.3,2.3c-0.2,1-0.4,1.9-0.4,2.5c-0.1,0.7-0.1,1.6-0.1,2.7
		C251.4,269.5,251.4,269.6,251.4,269.7z"/>
	<path class="st2" d="M299.8,256.6c5.2,0,9.3,1.8,12.4,5.4c3.1,3.6,4.7,7.2,4.7,11c0,1.3-0.3,2.2-0.8,2.6c-0.5,0.4-1.6,0.6-3.2,0.6
		h-19.4c-0.3,0-0.5,0.2-0.5,0.6c0,3.1,0.9,5.9,2.6,8.3c1.7,2.5,4.3,3.7,7.5,3.7c1.9,0,3.7-0.3,5.4-0.8c1.7-0.5,2.9-1,3.6-1.5
		s1.6-1.1,2.8-1.9c0.5,0.2,0.8,0.8,0.8,1.6c0,0.7-0.1,1.3-0.3,1.7c-0.6,1.4-2.3,3-5.2,4.9c-2.9,1.9-6.1,2.8-9.6,2.8
		c-5.3,0-9.8-1.9-13.6-5.8c-3.8-3.8-5.7-8.5-5.7-13.8c0-5.5,1.7-10.1,5.2-13.8C289.7,258.4,294.2,256.6,299.8,256.6z M299.3,261.3
		c-2.2,0-3.9,1.1-4.9,3.2s-1.5,4.3-1.5,6.3c0,0.3,0.2,0.5,0.6,0.5h10.9c0.8,0,1.2-0.5,1.2-1.6c0-2.2-0.6-4.1-1.8-5.8
		C302.7,262.2,301.2,261.3,299.3,261.3z"/>
</g>
</svg>
