<svg id="Ebene_1" data-name="Ebene 1" xmlns="http://www.w3.org/2000/svg" viewBox="0 0 100 100"><defs><style>.cls-1{fill:#604738;stroke:#bd8c6e;stroke-miterlimit:10;stroke-width:5px;}</style></defs><title>MO</title><circle class="cls-1" cx="50" cy="50" r="47.5"/><path d="M18.89,38H26.6L34,48.36,41.4,38H49V65.92H41.76V48.6L34,59.21,26.2,48.6V65.92H18.89Z"/><path d="M67.3,37.47c9,0,14.76,6.5,14.76,14.48S76.36,66.44,67.3,66.44,52.53,59.93,52.53,52,58.32,37.47,67.3,37.47ZM67.3,60c4.43,0,7-3.47,7-8.06s-2.51-8.06-7-8.06S60.35,47.36,60.35,52,62.91,60,67.3,60Z"/></svg>