<?xml version="1.0" encoding="utf-8"?>
<!-- Generator: Adobe Illustrator 23.0.2, SVG Export Plug-In . SVG Version: 6.00 Build 0)  -->
<svg version="1.1" id="Ebene_1" xmlns="http://www.w3.org/2000/svg" xmlns:xlink="http://www.w3.org/1999/xlink" x="0px" y="0px"
	 viewBox="0 0 180.8 59.9" style="enable-background:new 0 0 180.8 59.9;" xml:space="preserve">
<style type="text/css">
	.st0{fill:#BD8C6E;}
</style>
<path class="st0" d="M100.3,12.3c0.2-0.4,0.4-0.7,0.6-1.1c1.2-2.7,0.5-5.7-2-8.1c-2.5-2.5-5.5-3.2-8.4-2.1c-0.4,0.2-0.7,0.4-1.1,0.6
	c-0.4-0.2-0.7-0.4-1.1-0.6c-2.7-1.2-5.7-0.5-8.1,2c-2.5,2.5-3.2,5.5-2.1,8.4c0.2,0.4,0.4,0.7,0.6,1.1c-0.2,0.4-0.4,0.7-0.6,1.1
	c-1.2,2.7-0.5,5.7,2,8.1s5.5,3.2,8.4,2.1c0.4-0.2,0.7-0.4,1.1-0.6c0.4,0.2,0.7,0.4,1.1,0.6c2.7,1.2,5.7,0.5,8.1-2
	c2.5-2.5,3.2-5.5,2.1-8.4C100.7,13,100.5,12.6,100.3,12.3z M96.6,5.2c1.3,1,1.7,2.7,1.3,4.2c-0.1-0.1-0.1-0.1-0.2-0.2l-5.1-5.1
	C92.6,4,92.5,4,92.4,3.9C94,3.5,95.5,4,96.6,5.2z M90.1,18.3c-0.2,0.2-0.4,0.4-0.6,0.6c-0.2-0.2-0.4-0.4-0.6-0.6l-5.2-5.2
	c-0.3-0.3-0.5-0.5-0.7-0.8c0.2-0.2,0.4-0.4,0.6-0.6l5.2-5.2C89,6.2,89.2,6,89.5,5.7C89.8,6,90,6.2,90.3,6.5l5.2,5.2
	c0.2,0.2,0.4,0.4,0.6,0.6c-0.2,0.3-0.5,0.5-0.8,0.7L90.1,18.3z M82.4,5.2c1-1.3,2.7-1.7,4.2-1.3C86.5,4,86.4,4,86.3,4.1l-5.1,5.1
	c-0.1,0.1-0.1,0.1-0.2,0.2C80.6,7.9,81.1,6.3,82.4,5.2z M82.3,19.5c-1.4-1.1-1.8-2.8-1.3-4.3c0.1,0.1,0.2,0.2,0.3,0.3l5.1,5.1
	c0.1,0.1,0.2,0.2,0.3,0.3C85.1,21.3,83.4,20.9,82.3,19.5z M96.7,19.5c-1.1,1.4-2.8,1.8-4.3,1.3c0.1-0.1,0.2-0.2,0.3-0.3l5.1-5.1
	c0.1-0.1,0.2-0.2,0.3-0.3C98.5,16.7,98.1,18.5,96.7,19.5z"/>
<g id="Gruppe_19_1_" transform="translate(0 45.716)">
	<g id="Gruppe_1_1_" transform="translate(36.418 -45.379)">
		<path id="Pfad_1_1_" class="st0" d="M-15.8,35l-5.4,13.3l-1.1,3l-1.1-3L-28.8,35h-3.7v23.8h3V43.5l-0.1-3.2l1,2.9l5.2,12.8h2
			l5.2-12.8l1-2.9l-0.1,3.2v15.2h3V35H-15.8z"/>
	</g>
	<g>
		<g id="Gruppe_3_1_" transform="translate(0 -45.716)">
			<g id="Gruppe_2_1_" transform="translate(63.215 0)">
				<path id="Pfad_2_1_" class="st0" d="M-18.4,55.3c-1.1,2.6-3.6,4.1-6.8,4.1s-5.6-1.5-6.6-4c-0.5-1.6-0.8-3.2-0.7-4.9v-6.6
					c-0.1-1.6,0.1-3.3,0.7-4.8c1.1-2.6,3.6-4.1,6.8-4.1s5.6,1.5,6.6,4c0.5,1.6,0.8,3.2,0.7,4.9v6.6C-17.6,52.1-17.8,53.8-18.4,55.3
					 M-21.3,40.1c-0.6-1.5-2.1-2.5-3.8-2.3c-1.7-0.2-3.2,0.8-3.8,2.3c-0.4,1.2-0.5,2.4-0.5,3.6v6.8c-0.1,1.2,0.1,2.4,0.5,3.6
					c0.6,1.6,2.1,2.6,3.8,2.4c1.7,0.1,3.2-0.8,3.8-2.4c0.4-1.2,0.5-2.4,0.5-3.6v-6.8C-20.8,42.5-20.9,41.3-21.3,40.1"/>
			</g>
		</g>
	</g>
	<g id="Gruppe_4_1_" transform="translate(83.508 -45.379)">
		<path id="Pfad_4_1_" class="st0" d="M-19.7,35l-3.8,15.3l-1,4.7l-1-4.7L-29.3,35h-3.3l5.9,23.8h4.2l5.9-23.8H-19.7z"/>
	</g>
	<path id="Pfad_5_1_" class="st0" d="M72.8,13.4H76v-23.8h-3.2V13.4z"/>
	<g id="Gruppe_5_1_" transform="translate(116.743 -45.379)">
		<path id="Pfad_6_1_" class="st0" d="M-15.8,35l-5.4,13.3l-1.1,3l-1.1-3L-28.8,35h-3.7v23.8h3V43.5l-0.1-3.2l1,2.9l5.2,12.8h2
			l5.2-12.8l1-2.9l-0.1,3.2v15.2h3V35H-15.8z"/>
	</g>
	<g id="Gruppe_6_1_" transform="translate(145.26 -45.379)">
		<path id="Pfad_7_1_" class="st0" d="M-32.5,35v23.8h12.7v-2.9h-9.5v-8.1h7.8v-2.9h-7.8V38h9.4v-3H-32.5z"/>
	</g>
	<g id="Gruppe_7_1_" transform="translate(164.879 -45.379)">
		<path id="Pfad_8_1_" class="st0" d="M-20.1,35v14.5l0.1,3l-1.2-2.7L-28.9,35h-3.7v23.8h2.9V43.1l-0.1-3.1l1.2,2.7l8.3,16.1h3V35
			H-20.1z"/>
	</g>
	<g id="Gruppe_8_1_" transform="translate(186.081 -45.379)">
		<path id="Pfad_9_1_" class="st0" d="M-32.5,35v2.9h5.6v20.9h3.1V37.9h5.7V35H-32.5z"/>
	</g>
	<path id="Pfad_10_1_" class="st0" d="M173.8,13.4h3.2v-23.8h-3.2V13.4z"/>
</g>
</svg>
