<svg xmlns="http://www.w3.org/2000/svg" xmlns:xlink="http://www.w3.org/1999/xlink" width="209.541" height="24.472" viewBox="0 0 209.541 24.472">
  <defs>
    <style>
      .cls-1 {
        fill: #bd8c6e;
      }

      .cls-2 {
        clip-path: url(#clip-path);
      }

      .cls-3 {
        opacity: 0.9;
      }

      .cls-4 {
        clip-path: url(#clip-path-3);
      }

      .cls-5 {
        clip-path: url(#clip-path-4);
      }
    </style>
    <clipPath id="clip-path">
      <path id="Pfad_3" data-name="Pfad 3" class="cls-1" d="M0-21.244H209.541V-45.716H0Z" transform="translate(0 45.716)"/>
    </clipPath>
    <clipPath id="clip-path-3">
      <rect id="Rechteck_1" data-name="Rechteck 1" class="cls-1" width="33.549" height="28.363"/>
    </clipPath>
    <clipPath id="clip-path-4">
      <rect id="Rechteck_2" data-name="Rechteck 2" class="cls-1" width="33.716" height="28.196"/>
    </clipPath>
  </defs>
  <g id="Gruppe_19" data-name="Gruppe 19" transform="translate(0 45.716)">
    <g id="Gruppe_1" data-name="Gruppe 1" transform="translate(36.418 -45.379)">
      <path id="Pfad_1" data-name="Pfad 1" class="cls-1" d="M-14.485,0l-5.394,13.281-1.112,3-1.112-3L-27.462,0H-31.17V23.8h3.034V8.562l-.134-3.168,1.011,2.865,5.19,12.775h2.023l5.191-12.775,1.011-2.865-.135,3.168V23.8h3.034V0Z" transform="translate(31.17)"/>
    </g>
    <g id="Gruppe_3" data-name="Gruppe 3" class="cls-2" transform="translate(0 -45.716)">
      <g id="Gruppe_2" data-name="Gruppe 2" transform="translate(63.215 0)">
        <path id="Pfad_2" data-name="Pfad 2" class="cls-1" d="M-12.29-17.674c-1.079,2.562-3.573,4.112-6.843,4.112-3.168,0-5.629-1.483-6.64-4.045a12.453,12.453,0,0,1-.674-4.888v-6.573a12.047,12.047,0,0,1,.674-4.82c1.079-2.6,3.573-4.146,6.843-4.146s5.629,1.55,6.64,4.045a12.456,12.456,0,0,1,.674,4.888v6.606a12.17,12.17,0,0,1-.674,4.82m-2.932-15.2A3.682,3.682,0,0,0-19-35.2a3.716,3.716,0,0,0-3.842,2.326,9.977,9.977,0,0,0-.472,3.641v6.809a10.54,10.54,0,0,0,.472,3.607,3.776,3.776,0,0,0,3.809,2.427,3.793,3.793,0,0,0,3.809-2.393,10.218,10.218,0,0,0,.472-3.641v-6.842a10.421,10.421,0,0,0-.472-3.607" transform="translate(26.448 38.033)"/>
      </g>
    </g>
    <g id="Gruppe_4" data-name="Gruppe 4" transform="translate(83.508 -45.379)">
      <path id="Pfad_4" data-name="Pfad 4" class="cls-1" d="M-11.119,0l-3.775,15.337-1.011,4.652-1.012-4.652L-20.659,0h-3.269l5.865,23.8h4.214L-7.984,0Z" transform="translate(23.928)"/>
    </g>
    <path id="Pfad_5" data-name="Pfad 5" class="cls-1" d="M196.679-21.288h3.168v-23.8h-3.168Z" transform="translate(-91.396 -0.293)"/>
    <g id="Gruppe_5" data-name="Gruppe 5" transform="translate(116.743 -45.379)">
      <path id="Pfad_6" data-name="Pfad 6" class="cls-1" d="M-14.485,0l-5.394,13.281-1.112,3-1.112-3L-27.462,0H-31.17V23.8h3.034V8.562l-.135-3.168,1.011,2.865,5.191,12.775h2.022l5.191-12.775,1.011-2.865-.135,3.168V23.8h3.034V0Z" transform="translate(31.17)"/>
    </g>
    <g id="Gruppe_6" data-name="Gruppe 6" transform="translate(145.26 -45.379)">
      <path id="Pfad_7" data-name="Pfad 7" class="cls-1" d="M0,0V23.8H12.674V20.865H3.168V12.742h7.753V9.809H3.168V2.932h9.4V0Z"/>
    </g>
    <g id="Gruppe_7" data-name="Gruppe 7" transform="translate(164.879 -45.379)">
      <path id="Pfad_8" data-name="Pfad 8" class="cls-1" d="M-10.8,0V14.494l.135,3.034-1.247-2.663L-19.561,0h-3.674V23.8H-20.3V8.09l-.135-3.067,1.247,2.7L-10.9,23.8h3.033V0Z" transform="translate(23.235)"/>
    </g>
    <g id="Gruppe_8" data-name="Gruppe 8" transform="translate(186.081 -45.379)">
      <path id="Pfad_9" data-name="Pfad 9" class="cls-1" d="M0,0V2.932H5.629V23.8H8.764V2.932h5.7V0Z"/>
    </g>
    <path id="Pfad_10" data-name="Pfad 10" class="cls-1" d="M385.524-21.288h3.168v-23.8h-3.168Z" transform="translate(-179.151 -0.293)"/>
    <g id="Gruppe_18" data-name="Gruppe 18" class="cls-2" transform="translate(0 -45.716)">
      <g id="Gruppe_12" data-name="Gruppe 12" class="cls-3" transform="translate(-4.735 -3.714)">
        <g id="Gruppe_11" data-name="Gruppe 11">
          <g id="Gruppe_10" data-name="Gruppe 10" class="cls-4">
            <g id="Gruppe_9" data-name="Gruppe 9" transform="translate(4.818 3.747)">
              <path id="Pfad_11" data-name="Pfad 11" class="cls-1" d="M-19.843-10.475a17.884,17.884,0,0,1-2.379,2.866,4.084,4.084,0,0,1-1.31,4.372A4.383,4.383,0,0,1-26.624-1.77a3.864,3.864,0,0,1-1.23-.208A16.563,16.563,0,0,1-30.757.4,6.991,6.991,0,0,0-29.626.99a6.785,6.785,0,0,0,2.656.549,7.887,7.887,0,0,0,5.564-2.546c2.515-2.515,3.242-5.627,2.075-8.454a7.624,7.624,0,0,0-.512-1.015m-17.458-.02a9.718,9.718,0,0,0-1.738,2.435,4.929,4.929,0,0,0-.182.49l.234.236L-33.9-2.251c.083.084.165.165.246.244a4.613,4.613,0,0,0,.454-.166,9.24,9.24,0,0,0,2.462-1.76q-.3-.279-.621-.6L-36.627-9.8q-.365-.365-.674-.7m9.449-8.522q-.185.062-.373.143a9.065,9.065,0,0,0-2.52,1.813q.339.311.7.677l5.238,5.238q.338.338.628.647a9.687,9.687,0,0,0,1.81-2.514q.081-.187.143-.372l-.3-.3-5.057-5.056c-.093-.094-.185-.185-.275-.273M-34.5-22.541a7.951,7.951,0,0,0-5.581,2.553c-2.515,2.515-3.241,5.627-2.1,8.427a7.615,7.615,0,0,0,.534,1.048,18,18,0,0,1,2.412-2.9,4.152,4.152,0,0,1,1.256-4.317,4.375,4.375,0,0,1,3.105-1.433,4.037,4.037,0,0,1,1.2.188,16.369,16.369,0,0,1,2.95-2.418,7.021,7.021,0,0,0-1.138-.59,6.594,6.594,0,0,0-2.64-.556" transform="translate(42.702 22.541)"/>
            </g>
          </g>
        </g>
      </g>
      <g id="Gruppe_16" data-name="Gruppe 16" class="cls-3" transform="translate(-4.818 -3.623)">
        <g id="Gruppe_15" data-name="Gruppe 15">
          <g id="Gruppe_14" data-name="Gruppe 14" class="cls-5">
            <g id="Gruppe_13" data-name="Gruppe 13" transform="translate(4.818 3.747)">
              <path id="Pfad_12" data-name="Pfad 12" class="cls-1" d="M-16.155-10.375q-.28.3-.6.624l-5.264,5.264c-.245.245-.477.47-.7.677A9.679,9.679,0,0,0-20.206-2c.125.054.249.1.373.143.09-.088.182-.179.276-.273l5.083-5.083.272-.275q-.062-.185-.143-.373a9.081,9.081,0,0,0-1.81-2.516m-17.468-.014a6.991,6.991,0,0,0-.586,1.131c-1.193,2.749-.441,5.783,2,8.22A8.212,8.212,0,0,0-26.43,1.587a6.98,6.98,0,0,0,2.646-.525A7.555,7.555,0,0,0-22.737.528a17.914,17.914,0,0,1-2.9-2.412,4.035,4.035,0,0,1-1.193.185,4.406,4.406,0,0,1-3.125-1.441A4.129,4.129,0,0,1-31.2-7.446a16.733,16.733,0,0,1-2.422-2.944m7.974-8.464-.262.26-5.057,5.056c-.084.084-.165.165-.244.247a4.655,4.655,0,0,0,.166.453,9.256,9.256,0,0,0,1.763,2.466q.309-.338.674-.7l5.238-5.238q.336-.336.643-.625a9.7,9.7,0,0,0-2.433-1.735,4.743,4.743,0,0,0-.49-.182m6.657-3.473a7.021,7.021,0,0,0-2.692.543,7.56,7.56,0,0,0-1.015.512,17.852,17.852,0,0,1,2.865,2.378,3.828,3.828,0,0,1,1.22-.207,4.483,4.483,0,0,1,3.153,1.517A4.038,4.038,0,0,1-14.2-13.261a16.219,16.219,0,0,1,2.379,2.91,6.979,6.979,0,0,0,.59-1.138c1.141-2.7.518-5.7-2-8.22a8.18,8.18,0,0,0-5.761-2.617" transform="translate(34.765 22.326)"/>
            </g>
          </g>
        </g>
      </g>
      <g id="Gruppe_17" data-name="Gruppe 17" transform="translate(1.142 1.179)">
        <path id="Pfad_13" data-name="Pfad 13" class="cls-1" d="M-9.463-15.158a9.24,9.24,0,0,1-2.462,1.76q-.228.1-.454.166a17.914,17.914,0,0,0,2.9,2.412,16.571,16.571,0,0,0,2.9-2.383c-.123-.041-.248-.089-.373-.143a9.692,9.692,0,0,1-2.516-1.812m8.52-9.452q-.062.185-.143.373A9.7,9.7,0,0,1-2.9-21.723a9.065,9.065,0,0,1,1.81,2.516q.081.188.143.373A17.861,17.861,0,0,0,1.436-21.7,16.218,16.218,0,0,0-.943-24.61m-17.009-.029a17.914,17.914,0,0,0-2.412,2.9,16.715,16.715,0,0,0,2.422,2.943,4.744,4.744,0,0,1,.182-.49,9.705,9.705,0,0,1,1.738-2.436,9.255,9.255,0,0,1-1.763-2.466,4.612,4.612,0,0,1-.166-.454m8.513-7.98A16.369,16.369,0,0,0-12.39-30.2a4.865,4.865,0,0,1,.49.181,9.7,9.7,0,0,1,2.433,1.735A9.066,9.066,0,0,1-6.947-30.1q.188-.081.373-.143A17.861,17.861,0,0,0-9.44-32.62" transform="translate(20.364 32.62)"/>
      </g>
    </g>
  </g>
</svg>
