<svg id="Ebene_1" data-name="Ebene 1" xmlns="http://www.w3.org/2000/svg" viewBox="0 0 100 100"><defs><style>.cls-1{fill:#604738;stroke:#bd8c6e;stroke-miterlimit:10;stroke-width:5px;}</style></defs><title>SA</title><circle class="cls-1" cx="50" cy="50" r="47.5"/><path d="M28.09,57.26a17.32,17.32,0,0,0,8,2.47c2,0,3.27-.76,3.27-1.95C39.34,54,25.1,56.7,25.1,46.17c0-4.75,3.91-8.7,10.65-8.7A24.71,24.71,0,0,1,46.25,40L43.46,46a16.13,16.13,0,0,0-7.31-1.84c-1.95,0-3.07.84-3.07,2,0,3.67,14.25.91,14.25,11.57,0,4.91-3.76,8.78-11.22,8.78a23.89,23.89,0,0,1-11.65-3.23Z"/><path d="M58,38h8.58L76.3,65.92H68l-1.28-4.15h-9L56.5,65.92H48.2Zm1.48,18.07H65l-2.75-9.14h-.08Z"/></svg>