<svg id="Ebene_1" width="101" height="101" data-name="Ebene 1" xmlns="http://www.w3.org/2000/svg" viewBox="0 0 101 101"><defs><style>.cls-1{fill:#0b0b0b;}.cls-2,.cls-3,.cls-4{fill:none;}.cls-2{stroke:#000;stroke-width:5px;}.cls-3,.cls-4{stroke:#bd8c6e;stroke-miterlimit:10;stroke-width:1.5px;}.cls-3{stroke-linecap:round;}</style></defs><title>Sauna</title><g id="Ellipse_84" data-name="Ellipse 84"><circle class="cls-1" cx="50.5" cy="50.5" r="50.5"/><circle class="cls-2" cx="50.5" cy="50.5" r="48"/></g><g id="Gruppe_362" data-name="Gruppe 362"><path id="Pfad_115" data-name="Pfad 115" class="cls-3" d="M67.3,61.3H40.11a3.21,3.21,0,1,1,0-6.4H69.23a6.12,6.12,0,1,1,0,12.24H14.43L28.34,43H44"/><path id="Pfad_116" data-name="Pfad 116" class="cls-4" d="M73.75,65.46"/><path id="Pfad_117" data-name="Pfad 117" class="cls-4" d="M37,56.68,47.39,37.1c.89-1.93,1.92-3.24,3.85-3.24H80.43A6.14,6.14,0,0,1,86.57,40a6,6,0,0,1-.71,2.85L75,63.22"/><path id="Pfad_118" data-name="Pfad 118" class="cls-4" d="M20.63,67.11"/><path id="Pfad_119" data-name="Pfad 119" class="cls-4" d="M33.94,43.12"/><path id="Pfad_120" data-name="Pfad 120" class="cls-4" d="M71.92,45.16"/></g></svg>