<svg id="Ebene_1" data-name="Ebene 1" xmlns="http://www.w3.org/2000/svg" viewBox="0 0 100 100"><defs><style>.cls-1{fill:#604738;stroke:#bd8c6e;stroke-miterlimit:10;stroke-width:5px;}</style></defs><title>SO</title><circle class="cls-1" cx="50" cy="50" r="47.5"/><path d="M26.26,55.31a17.37,17.37,0,0,0,8,2.47c2,0,3.27-.76,3.27-2,0-3.76-14.24-1.08-14.24-11.62,0-4.74,3.91-8.69,10.65-8.69a24.52,24.52,0,0,1,10.49,2.55L41.62,44a16.19,16.19,0,0,0-7.3-1.83c-2,0-3.07.84-3.07,2,0,3.68,14.24.92,14.24,11.58,0,4.9-3.75,8.77-11.21,8.77a23.78,23.78,0,0,1-11.65-3.23Z"/><path d="M62.61,35.52c9,0,14.76,6.5,14.76,14.48s-5.7,14.48-14.76,14.48S47.85,58,47.85,50,53.63,35.52,62.61,35.52Zm0,22.54c4.43,0,7-3.47,7-8.06s-2.51-8.06-7-8.06S55.67,45.41,55.67,50,58.22,58.06,62.61,58.06Z"/></svg>