<svg xmlns="http://www.w3.org/2000/svg" width="101" height="101" viewBox="0 0 101 101">
  <g id="Gruppe_371" data-name="Gruppe 371" transform="translate(-356 -1907)">
    <g id="Ellipse_30" data-name="Ellipse 30" transform="translate(356 1907)" fill="#1c1714" stroke="#000" stroke-width="5">
      <circle cx="50.5" cy="50.5" r="50.5" stroke="none"/>
      <circle cx="50.5" cy="50.5" r="48" fill="none"/>
    </g>
    <g id="Gruppe_156" data-name="Gruppe 156" transform="translate(199.549 1887.003)">
      <g id="Gruppe_119" data-name="Gruppe 119" transform="translate(200.924 59.99)">
        <path id="Pfad_91" data-name="Pfad 91" d="M204.3,90.473V76.537c0-17.273,15.293-16.748,15.992-16.748s15.988-.611,15.988,16.748V90.473" transform="translate(-202.024 -59.786)" fill="none" stroke="#bd8c6e" stroke-linecap="round" stroke-linejoin="round" stroke-width="1.5"/>
        <path id="Pfad_92" data-name="Pfad 92" d="M209.357,73.759H215.7l2.642-5.284,3.11,5.286H231.2" transform="translate(-201.962 -59.681)" fill="none" stroke="#bd8c6e" stroke-linecap="round" stroke-linejoin="round" stroke-width="1.5"/>
        <g id="Gruppe_117" data-name="Gruppe 117" transform="translate(0 27.858)">
          <g id="Gruppe_115" data-name="Gruppe 115" transform="translate(24.476)">
            <path id="Pfad_93" data-name="Pfad 93" d="M226.235,87.31c0,1.551,0,5.629,0,5.629s-.352,2.091,12.049,5.248" transform="translate(-226.233 -87.31)" fill="none" stroke="#bd8c6e" stroke-linecap="round" stroke-linejoin="round" stroke-width="1.5"/>
          </g>
          <g id="Gruppe_116" data-name="Gruppe 116">
            <path id="Pfad_94" data-name="Pfad 94" d="M214.1,87.31c0,1.551,0,5.629,0,5.629s.354,2.091-12.049,5.248" transform="translate(-202.051 -87.31)" fill="none" stroke="#bd8c6e" stroke-linecap="round" stroke-linejoin="round" stroke-width="1.5"/>
          </g>
        </g>
        <g id="Gruppe_118" data-name="Gruppe 118" transform="translate(9.257 14.17)">
          <path id="Pfad_95" data-name="Pfad 95" d="M228.754,73.787a14.045,14.045,0,0,1,.3,3.395c0,4.86-1.908,10.25-5.016,12.582a6.285,6.285,0,0,1-.863.473" transform="translate(-211.052 -73.787)" fill="none" stroke="#bd8c6e" stroke-linecap="round" stroke-linejoin="round" stroke-width="1.5"/>
          <path id="Pfad_96" data-name="Pfad 96" d="M211.507,73.787a14.241,14.241,0,0,0-.3,3.395c0,4.86,1.911,10.25,5.018,12.582a6.284,6.284,0,0,0,.863.473" transform="translate(-211.197 -73.787)" fill="none" stroke="#bd8c6e" stroke-linecap="round" stroke-linejoin="round" stroke-width="1.5"/>
        </g>
      </g>
      <path id="Pfad_97" data-name="Pfad 97" d="M199.81,74.4h-6.7V85.17L185.72,74.424h-4.957a3.321,3.321,0,0,1-3.312-3.314v-24.8A3.321,3.321,0,0,1,180.763,43h36.257a3.354,3.354,0,0,1,3.347,3.314v9.018" fill="none" stroke="#bd8c6e" stroke-linejoin="round" stroke-width="1.5"/>
      <g id="Gruppe_120" data-name="Gruppe 120" transform="translate(184.627 51.168)">
        <line id="Linie_37" data-name="Linie 37" x2="28.563" fill="none" stroke="#bd8c6e" stroke-linejoin="round" stroke-width="1.5"/>
        <line id="Linie_38" data-name="Linie 38" x2="11.226" transform="translate(0 14.727)" fill="none" stroke="#bd8c6e" stroke-linejoin="round" stroke-width="1.5"/>
        <line id="Linie_39" data-name="Linie 39" x2="22.102" transform="translate(0 7.364)" fill="none" stroke="#bd8c6e" stroke-linejoin="round" stroke-width="1.5"/>
      </g>
    </g>
  </g>
</svg>
