<svg xmlns="http://www.w3.org/2000/svg" width="101" height="101" viewBox="0 0 101 101">
  <g id="Gruppe_379" data-name="Gruppe 379" transform="translate(-1024 -3903)">
    <g id="Ellipse_9" data-name="Ellipse 9" transform="translate(1024 3903)" fill="#0b0b0b" stroke="#000" stroke-width="5">
      <circle cx="50.5" cy="50.5" r="50.5" stroke="none"/>
      <circle cx="50.5" cy="50.5" r="48" fill="none"/>
    </g>
    <g id="Gruppe_378" data-name="Gruppe 378" transform="translate(-3 2)">
      <path id="Pfad_60" data-name="Pfad 60" d="M66.991,179.4h3.084l2.975-6.955L77.1,187.088l4-23.462,3.062,15.808h3.915" transform="translate(999.606 3770.924)" fill="none" stroke="#bd8c6e" stroke-linecap="round" stroke-linejoin="round" stroke-width="1.5"/>
      <g id="Gruppe_85" data-name="Gruppe 85" transform="translate(1059 3922)">
        <path id="Pfad_61" data-name="Pfad 61" d="M90.672,150.065H64.394a4.9,4.9,0,0,0-5,4.766V205.3a4.9,4.9,0,0,0,5,4.766H90.672a4.9,4.9,0,0,0,5-4.766V154.831a4.9,4.9,0,0,0-5-4.766Z" transform="translate(-59.394 -150.065)" fill="none" stroke="#bd8c6e" stroke-width="1.5"/>
      </g>
      <line id="Linie_13" data-name="Linie 13" x2="32.319" transform="translate(1060.98 3968.077)" fill="none" stroke="#bd8c6e" stroke-linejoin="round" stroke-width="1.5"/>
      <line id="Linie_14" data-name="Linie 14" x2="4.432" transform="translate(1074.924 3973.821)" fill="none" stroke="#bd8c6e" stroke-linecap="round" stroke-linejoin="round" stroke-width="1.5"/>
    </g>
  </g>
</svg>
