<svg xmlns="http://www.w3.org/2000/svg" width="101" height="101" viewBox="0 0 101 101">
  <g id="Gruppe_377" data-name="Gruppe 377" transform="translate(-1024 -3778)">
    <g id="Ellipse_10" data-name="Ellipse 10" transform="translate(1024 3778)" fill="#0b0b0b" stroke="#000" stroke-width="5">
      <circle cx="50.5" cy="50.5" r="50.5" stroke="none"/>
      <circle cx="50.5" cy="50.5" r="48" fill="none"/>
    </g>
    <g id="Gruppe_96" data-name="Gruppe 96" transform="translate(870.912 3426.615)">
      <path id="Pfad_62" data-name="Pfad 62" d="M225.707,382.348l3.793-3.792,4.093,4.092-3.678,3.677" transform="translate(-6.238 -0.157)" fill="none" stroke="#bd8c6e" stroke-linejoin="round" stroke-width="1.5"/>
      <line id="Linie_15" data-name="Linie 15" y1="11.638" x2="11.638" transform="translate(194.357 395.666)" fill="none" stroke="#bd8c6e" stroke-linejoin="round" stroke-width="1.5"/>
      <path id="Pfad_63" data-name="Pfad 63" d="M188.078,428.146l-3.727,3.728-4.092-4.091,3.881-3.882" transform="translate(-0.157 -6.224)" fill="none" stroke="#bd8c6e" stroke-linejoin="round" stroke-width="1.5"/>
      <line id="Linie_16" data-name="Linie 16" x1="11.598" y2="11.598" transform="translate(198.488 399.758)" fill="none" stroke="#bd8c6e" stroke-linejoin="round" stroke-width="1.5"/>
      <g id="Gruppe_94" data-name="Gruppe 94" transform="translate(179.088 377.385)">
        <g id="Gruppe_90" data-name="Gruppe 90" transform="translate(0 30.256)">
          <g id="Gruppe_89" data-name="Gruppe 89">
            <path id="Pfad_64" data-name="Pfad 64" d="M197.1,425.087a3.475,3.475,0,0,1,0,4.9l-.34.34a3.475,3.475,0,0,1-4.9,0L180.1,418.565a3.475,3.475,0,0,1,0-4.9l.341-.34a3.475,3.475,0,0,1,4.9,0Z" transform="translate(-179.088 -412.315)" fill="none" stroke="#bd8c6e" stroke-miterlimit="10" stroke-width="1.5"/>
          </g>
        </g>
        <g id="Gruppe_93" data-name="Gruppe 93" transform="translate(20.907)">
          <g id="Gruppe_91" data-name="Gruppe 91" transform="translate(0 1.155)">
            <path id="Pfad_65" data-name="Pfad 65" d="M224.192,404.925a3.476,3.476,0,0,0,4.9,0l.34-.34a3.475,3.475,0,0,0,0-4.9L209.476,379.73a3.475,3.475,0,0,0-4.9,0l-.34.34a3.475,3.475,0,0,0,0,4.9Z" transform="translate(-203.225 -378.719)" fill="none" stroke="#bd8c6e" stroke-miterlimit="10" stroke-width="1.5"/>
          </g>
          <g id="Gruppe_92" data-name="Gruppe 92" transform="translate(9.349)">
            <path id="Pfad_66" data-name="Pfad 66" d="M226.789,395.4a3.476,3.476,0,0,0,4.9,0l.34-.34a3.475,3.475,0,0,0,0-4.9L220.269,378.4a3.473,3.473,0,0,0-4.9,0l-.342.341a3.476,3.476,0,0,0,0,4.9Z" transform="translate(-214.018 -377.385)" fill="none" stroke="#bd8c6e" stroke-miterlimit="10" stroke-width="1.5"/>
          </g>
        </g>
      </g>
      <g id="Gruppe_95" data-name="Gruppe 95" transform="translate(180.242 398.291)">
        <path id="Pfad_67" data-name="Pfad 67" d="M206.627,422.489a3.476,3.476,0,0,1,0,4.9l-.34.34a3.474,3.474,0,0,1-4.9,0l-19.958-19.959a3.473,3.473,0,0,1,0-4.9l.341-.34a3.474,3.474,0,0,1,4.9,0Z" transform="translate(-180.42 -401.521)" fill="none" stroke="#bd8c6e" stroke-miterlimit="10" stroke-width="1.5"/>
      </g>
    </g>
  </g>
</svg>
