<?xml version="1.0" encoding="utf-8"?>
<!-- Generator: Adobe Illustrator 22.0.1, SVG Export Plug-In . SVG Version: 6.00 Build 0)  -->
<svg version="1.1" id="Ebene_1" xmlns="http://www.w3.org/2000/svg" xmlns:xlink="http://www.w3.org/1999/xlink" x="0px" y="0px"
	 viewBox="0 0 400 400" style="enable-background:new 0 0 400 400;" xml:space="preserve">
<style type="text/css">
	.st0{fill:#000111;}
	.st1{enable-background:new    ;}
	.st2{fill:#E6F0DC;}
</style>
<circle class="st0" cx="200" cy="200" r="200"/>
<g class="st1">
	<path class="st2" d="M68,173.7c-0.6-0.3-1.2-0.9-1.6-1.7c-0.5-0.8-0.7-1.5-0.7-2c0-1,0.1-1.7,0.3-1.9c5.3-3.4,10.8-6.9,16.6-10.5
		c5.7-3.5,10.3-6.3,13.7-8.2c3.4-1.9,5.2-2.9,5.4-2.9h0.3c0.8,0,1.5,1,1.9,3c-0.9,3-1.4,7.9-1.4,14.7v62.7c0,4.3,0.4,8,1.2,11.2
		c0.2,0.7,1.5,1.5,4,2.4c2.4,0.9,4.1,1.3,4.9,1.3c0.3,0,0.5,1.1,0.5,3.3c0,1.2-0.1,2.1-0.3,2.5c-1.1-0.1-4.2-0.3-9.3-0.7
		c-5.1-0.4-8.8-0.5-11.2-0.5c-2.4,0-6.2,0.2-11.3,0.5s-8.3,0.6-9.3,0.7c-0.4-0.4-0.6-1.5-0.6-3.2s0.2-2.6,0.6-2.6
		c1.1,0,3-0.5,5.5-1.4s3.9-1.8,4.1-2.7c0.6-2.5,0.9-5.5,0.9-8.9v-52.5c0-5.2-1-7.8-3.1-7.8C77.3,168.6,73.7,170.3,68,173.7z"/>
	<path class="st2" d="M150.8,146.2c8.6,0,16.3,3,22.9,9c6.6,6,9.9,13.8,9.9,23.5c0,8.3-1.7,16.3-5.1,23.8
		c-3.4,7.6-7.9,14.2-13.7,19.9c-5.7,5.7-11.8,10.7-18.3,14.8c-6.5,4.2-13.2,7.7-20.3,10.6c-1.9-0.4-2.8-2.2-2.8-5.3
		c8.8-3.8,16.3-8.9,22.7-15.5s10.7-13.7,13.1-21.2c0.3-1.5,0.2-2.6-0.3-3.3c-3,1.2-6,1.9-8.9,1.9c-8.2,0-15.3-2.8-21.2-8.4
		c-5.9-5.6-8.8-12.2-8.8-19.9c0-7.9,3.1-14.9,9.2-20.9C135.4,149.2,142.6,146.2,150.8,146.2z M162.5,176.8c0-15-4-22.5-11.9-22.5
		c-3.5,0-6,1.6-7.5,4.8s-2.2,8.4-2.2,15.6c0,7.1,1,12.4,3.1,16.1c2.1,3.6,5.6,5.5,10.5,5.5c3.9,0,6.1-1.5,6.9-4.4
		C162,189.6,162.4,184.6,162.5,176.8z"/>
	<path class="st2" d="M204.7,147.3c24.2,0,37.4-0.3,39.7-0.8c0.8,1.2,1.2,3,1.2,5.3c0,5.6-0.6,9.5-1.7,11.6
		c-6,0.2-11.5,0.3-16.2,0.4c-4.8,0.1-8.4,0.1-10.8,0.1c-2.4,0-4,0-4.8,0c-1.2,0.1-1.9,0.6-2,1.4l-3,17.3c4.4-1,8.6-1.6,12.7-1.6
		c8,0,15.6,2.9,22.7,8.7c7.1,5.8,10.6,12.6,10.6,20.5c0,10.6-4.2,19.5-12.6,26.6c-8.4,7.1-18.6,10.6-30.7,10.6
		c-6.7,0-12.8-1.8-18.3-5.3c-0.6-1.7-0.9-3.2-0.9-4.5c0-2.4,0.5-4.6,1.5-6.5s2.7-2.9,5.1-2.9c3,0,5.9,1.9,8.8,5.6
		c2.7,3.6,6.4,5.5,10.9,5.5c5.3,0,9.2-2.1,11.6-6.4c2.4-4.3,3.6-9.1,3.6-14.5c0-6.8-1.7-12.2-5.2-16.4s-7.6-6.2-12.3-6.2
		c-2.3,0-4.5,0.1-6.5,0.3s-3.5,0.4-4.5,0.6c-1,0.2-2,0.5-3,0.8l-1.7,0.5c-1.1-0.6-2-1.4-2.7-2.2c0.1-0.2,0.8-3.8,2-10.6
		s2.6-14.3,4-22.3S204.3,149.7,204.7,147.3z"/>
	<path class="st2" d="M272.4,232.9c-7.3-9.7-11-21.2-11-34.5s3.7-24.8,11-34.5s15.8-14.5,25.4-14.5c9.5,0,17.8,4.8,24.9,14.5
		c7.1,9.6,10.7,21.2,10.7,34.6s-3.6,25-10.7,34.6s-15.4,14.5-24.9,14.5C288.2,247.5,279.8,242.6,272.4,232.9z M283.3,198.2
		c0,12,1.4,21.8,4.3,29.5s6.3,11.6,10.4,11.6c4.6,0,8-3.8,10.2-11.2c2.2-7.5,3.4-17.7,3.4-30.6c0-12.4-1.2-22.2-3.6-29.5
		c-2.4-7.2-5.7-10.9-10-10.9c-4.6,0-8.2,3.8-10.8,11.2C284.6,175.9,283.3,185.9,283.3,198.2z"/>
</g>
</svg>
