<?xml version="1.0" encoding="utf-8"?>
<!-- Generator: Adobe Illustrator 22.0.1, SVG Export Plug-In . SVG Version: 6.00 Build 0)  -->
<svg version="1.1" id="Ebene_1" xmlns="http://www.w3.org/2000/svg" xmlns:xlink="http://www.w3.org/1999/xlink" x="0px" y="0px"
	 viewBox="0 0 400 400" style="enable-background:new 0 0 400 400;" xml:space="preserve">
<style type="text/css">
	.st0{fill:#000111;}
	.st1{enable-background:new    ;}
	.st2{fill:#E6F0DC;}
</style>
<circle class="st0" cx="200" cy="200" r="200"/>
<g class="st1">
	<path class="st2" d="M91.6,146.7c7.7,0,14.1,2.4,19.3,7.3s7.7,11.4,7.7,19.6c0,3.3-0.4,6.6-1.2,9.8c-0.8,3.2-2.4,6.6-4.8,10.2
		s-4.3,6.5-5.9,8.8c-1.6,2.2-4.4,5.4-8.6,9.6c-4.2,4.2-7,7-8.5,8.4s-4.9,4.5-10.1,9.3c-0.2,0.2-0.3,0.5-0.2,0.9
		c0.1,0.4,0.4,0.5,0.8,0.5H107c2.2,0,4.1-0.4,5.6-1.2s2.8-2,3.8-3.7c0.9-1.7,1.6-3.1,2-4.2c0.4-1.1,0.9-2.8,1.4-4.8
		c0.2-0.7,1.1-1.1,2.7-1.1s2.8,0.3,3.6,0.9c-2.1,8.9-4.1,18.1-6.1,27.8c-0.2,1.5-0.8,2.2-1.9,2.2H60.9c-1.1-1.2-1.8-3-1.9-5.2
		c10-11,18.8-22.8,26.4-35.2s11.4-22.5,11.4-30.1c0-4.5-1.2-8.4-3.6-11.8c-2.4-3.4-5.6-5.1-9.7-5.1c-2.6,0-5,0.5-7.3,1.6
		c-2.2,1.1-3.9,2.2-4.9,3.4c-1,1.1-2.1,2.4-3.1,3.9l-1.6,2.2c-0.8,0-1.8-0.4-2.9-1.2s-1.6-1.7-1.6-2.7c0.8-1.9,1.9-3.8,3.3-5.7
		s3.2-4.1,5.5-6.5s5.3-4.3,8.9-5.8C83.4,147.4,87.4,146.7,91.6,146.7z"/>
	<path class="st2" d="M144.8,232.9c-7.3-9.7-11-21.2-11-34.5s3.7-24.8,11-34.5s15.8-14.5,25.4-14.5c9.5,0,17.8,4.8,24.9,14.5
		c7.1,9.6,10.7,21.2,10.7,34.6s-3.6,25-10.7,34.6c-7.1,9.6-15.4,14.5-24.9,14.5C160.6,247.5,152.2,242.6,144.8,232.9z M155.7,198.2
		c0,12,1.4,21.8,4.3,29.5c2.9,7.7,6.3,11.6,10.4,11.6c4.6,0,8-3.8,10.2-11.2c2.2-7.5,3.4-17.7,3.4-30.6c0-12.4-1.2-22.2-3.6-29.5
		c-2.4-7.2-5.7-10.9-10-10.9c-4.6,0-8.2,3.8-10.8,11.2C157,175.9,155.7,185.9,155.7,198.2z"/>
	<path class="st2" d="M215.7,173.7c-0.6-0.3-1.2-0.9-1.6-1.7c-0.5-0.8-0.7-1.5-0.7-2c0-1,0.1-1.7,0.3-1.9
		c5.3-3.4,10.8-6.9,16.6-10.5c5.7-3.5,10.3-6.3,13.7-8.2s5.2-2.9,5.4-2.9h0.3c0.8,0,1.5,1,1.9,3c-0.9,3-1.4,7.9-1.4,14.7v62.7
		c0,4.3,0.4,8,1.2,11.2c0.2,0.7,1.5,1.5,4,2.4c2.4,0.9,4.1,1.3,4.9,1.3c0.3,0,0.5,1.1,0.5,3.3c0,1.2-0.1,2.1-0.3,2.5
		c-1.1-0.1-4.2-0.3-9.3-0.7c-5.1-0.4-8.8-0.5-11.2-0.5s-6.2,0.2-11.3,0.5s-8.3,0.6-9.3,0.7c-0.4-0.4-0.6-1.5-0.6-3.2
		s0.2-2.6,0.6-2.6c1.1,0,3-0.5,5.5-1.4s3.9-1.8,4.1-2.7c0.6-2.5,0.9-5.5,0.9-8.9v-52.5c0-5.2-1-7.8-3.1-7.8
		C225.1,168.6,221.4,170.3,215.7,173.7z"/>
	<path class="st2" d="M279.4,232.9c-7.3-9.7-11-21.2-11-34.5s3.7-24.8,11-34.5s15.8-14.5,25.4-14.5c9.5,0,17.8,4.8,24.9,14.5
		c7.1,9.6,10.7,21.2,10.7,34.6s-3.6,25-10.7,34.6s-15.4,14.5-24.9,14.5C295.2,247.5,286.7,242.6,279.4,232.9z M290.2,198.2
		c0,12,1.4,21.8,4.3,29.5s6.3,11.6,10.4,11.6c4.6,0,8-3.8,10.2-11.2c2.2-7.5,3.4-17.7,3.4-30.6c0-12.4-1.2-22.2-3.6-29.5
		c-2.4-7.2-5.7-10.9-10-10.9c-4.6,0-8.2,3.8-10.8,11.2C291.5,175.9,290.2,185.9,290.2,198.2z"/>
</g>
</svg>
