<?xml version="1.0" encoding="utf-8"?>
<!-- Generator: Adobe Illustrator 22.0.1, SVG Export Plug-In . SVG Version: 6.00 Build 0)  -->
<svg version="1.1" id="Ebene_1" xmlns="http://www.w3.org/2000/svg" xmlns:xlink="http://www.w3.org/1999/xlink" x="0px" y="0px"
	 viewBox="0 0 400 400" style="enable-background:new 0 0 400 400;" xml:space="preserve">
<style type="text/css">
	.st0{fill:#000111;}
	.st1{enable-background:new    ;}
	.st2{fill:#E6F0DC;}
</style>
<circle class="st0" cx="200" cy="200" r="200"/>
<g class="st1">
	<path class="st2" d="M70.2,173.7c-0.6-0.3-1.2-0.9-1.6-1.7c-0.5-0.8-0.7-1.5-0.7-2c0-1,0.1-1.7,0.3-1.9c5.3-3.4,10.8-6.9,16.6-10.5
		c5.7-3.5,10.3-6.3,13.7-8.2c3.4-1.9,5.2-2.9,5.4-2.9h0.3c0.8,0,1.5,1,1.9,3c-0.9,3-1.4,7.9-1.4,14.7v62.7c0,4.3,0.4,8,1.2,11.2
		c0.2,0.7,1.5,1.5,4,2.4c2.4,0.9,4.1,1.3,4.9,1.3c0.3,0,0.5,1.1,0.5,3.3c0,1.2-0.1,2.1-0.3,2.5c-1.1-0.1-4.2-0.3-9.3-0.7
		c-5.1-0.4-8.8-0.5-11.2-0.5c-2.4,0-6.2,0.2-11.3,0.5s-8.3,0.6-9.3,0.7c-0.4-0.4-0.6-1.5-0.6-3.2s0.2-2.6,0.6-2.6
		c1.1,0,3-0.5,5.5-1.4s3.9-1.8,4.1-2.7c0.6-2.5,0.9-5.5,0.9-8.9v-52.5c0-5.2-1-7.8-3.1-7.8C79.6,168.6,76,170.3,70.2,173.7z"/>
	<path class="st2" d="M153,146.2c8.6,0,16.3,3,22.9,9c6.6,6,9.9,13.8,9.9,23.5c0,8.3-1.7,16.3-5.1,23.8c-3.4,7.6-7.9,14.2-13.7,19.9
		c-5.7,5.7-11.8,10.7-18.3,14.8c-6.5,4.2-13.2,7.7-20.3,10.6c-1.9-0.4-2.8-2.2-2.8-5.3c8.8-3.8,16.3-8.9,22.7-15.5
		s10.7-13.7,13.1-21.2c0.3-1.5,0.2-2.6-0.3-3.3c-3,1.2-6,1.9-8.9,1.9c-8.2,0-15.3-2.8-21.2-8.4c-5.9-5.6-8.8-12.2-8.8-19.9
		c0-7.9,3.1-14.9,9.2-20.9C137.6,149.2,144.8,146.2,153,146.2z M164.8,176.8c0-15-4-22.5-11.9-22.5c-3.5,0-6,1.6-7.5,4.8
		s-2.2,8.4-2.2,15.6c0,7.1,1,12.4,3.1,16.1c2.1,3.6,5.6,5.5,10.5,5.5c3.9,0,6.1-1.5,6.9-4.4C164.3,189.6,164.7,184.6,164.8,176.8z"
		/>
	<path class="st2" d="M225.1,148.1c8.1,0,15.3,2,21.4,6c6.1,4,9.2,9.5,9.2,16.5c0,8.4-5.7,16.1-17.2,23.1c-0.2,0.1-0.3,0.3-0.3,0.5
		c0,0.3,0.1,0.4,0.3,0.5c0.1,0.1,0.9,0.7,2.3,1.6c1.4,1,2.6,1.9,3.4,2.6c0.9,0.7,2.1,1.8,3.7,3.1c1.6,1.4,2.9,2.7,3.9,3.9
		s2.1,2.7,3.1,4.2c1,1.6,1.8,3.2,2.4,4.9s0.9,3.5,0.9,5.2c0,8.1-3.4,14.7-10.1,19.8c-6.7,5.1-14.5,7.7-23.4,7.7s-16.3-2.1-22.4-6.3
		s-9.1-10.7-9.1-19.5c0-9.8,6.1-17.9,18.3-24.4c0.6-0.3,0.6-0.7-0.2-1.2c-0.3-0.2-1.1-0.9-2.5-2s-2.3-2-3-2.6
		c-0.6-0.6-1.5-1.5-2.7-2.7s-2.1-2.4-2.7-3.5s-1.3-2.4-2.1-3.9s-1.3-3.2-1.6-5s-0.5-3.7-0.5-5.7c0-6.7,2.9-12.2,8.8-16.5
		C210.9,150.3,217.6,148.1,225.1,148.1z M226,239.8c3.3,0,6-1.3,8.1-4s3.1-5.9,3.1-9.8c0-2.3-0.5-4.6-1.6-6.8
		c-1-2.2-2.6-4.4-4.8-6.5c-2.1-2.1-3.8-3.6-4.8-4.5c-1.1-0.9-2.6-2.1-4.6-3.5c-0.7-0.6-1.5-0.9-2.2-0.9c-0.3,0-0.6,0.1-0.8,0.2
		c-2.9,1.6-4.4,7.6-4.4,18.1c0,4.7,1,8.8,3,12.3C219.2,238,222.2,239.8,226,239.8z M225.5,156.4c-6,0-9.1,4.5-9.1,13.4
		c0,2.8,0.7,5.4,2,7.7c1.4,2.3,2.5,3.9,3.4,4.7s2.8,2.2,5.5,4.1c0.5,0.4,1.2,0.6,2,0.6c0.4,0,0.7-0.1,0.9-0.3c3.3-3.2,5-8.3,5-15.2
		C235.4,161.4,232.1,156.4,225.5,156.4z"/>
	<path class="st2" d="M284.6,163.2c-0.9,0-1.8,0.1-2.7,0.4c-0.8,0.3-1.5,0.5-2.1,0.9c-0.6,0.3-1.1,0.8-1.7,1.6
		c-0.6,0.7-1,1.3-1.4,1.7s-0.8,1.1-1.2,2.2c-0.4,1-0.7,1.8-0.9,2.2c-0.2,0.4-0.4,1.2-0.8,2.4s-0.6,2-0.7,2.3c-0.2,0.5-1.3,0.9-3.2,1
		c-1.9,0.2-3.2-0.1-3.8-0.7c2.5-9.5,4.8-18.8,6.9-28c0.3-1.2,1.3-1.9,3-1.9h46.1c1.6,0,3.7-0.1,6.4-0.3l4.1-0.2
		c0.7,0,1.1,0.5,1.1,1.4c0,1.7-1.4,5.2-4.2,10.5l-42.8,89.8c-0.3,0.1-0.7,0.2-1.1,0.2c-1.5,0-2.8-0.5-3.9-1.6
		c-1.1-1-1.7-2.3-1.7-3.8l39.7-80.2h-35.1L284.6,163.2L284.6,163.2z"/>
</g>
</svg>
