<?xml version="1.0" encoding="utf-8"?>
<!-- Generator: Adobe Illustrator 19.2.1, SVG Export Plug-In . SVG Version: 6.00 Build 0)  -->
<svg version="1.1" id="Ebene_1" xmlns="http://www.w3.org/2000/svg" xmlns:xlink="http://www.w3.org/1999/xlink" x="0px" y="0px"
	 viewBox="0 0 708.7 175.5" style="enable-background:new 0 0 708.7 175.5;" xml:space="preserve">
<style type="text/css">
	.st0{fill:#EF7C00;}
	.st1{fill:#FFFFFF;}
</style>
<g>
	<path class="st0" d="M66.7,68.8c-7,0-12.3,3.4-12.7,15.9h24.4C78.3,70.5,72.5,68.8,66.7,68.8z"/>
	<path class="st0" d="M78.4,23.2H53.6C19.6,23.2,0,44.8,0,78.8v22.8c0,34,21.6,55.6,55.5,55.6h22.8c34,0,55.5-21.6,55.5-55.6V76.8
		C133.9,42.8,112.3,23.2,78.4,23.2z M96.4,96.2H53.8c1.5,10.7,8.7,12.5,15.9,12.5c8,0,23.3-5,23.3-5v14.8c0,0-11.8,4.6-23.3,4.6
		c-12.9,0-34-2.4-34-33c0-27.3,18-33.7,31-33.7c14.1,0,29.7,5.6,29.7,33.5V96.2z"/>
	<path class="st0" d="M250.9,0h-26.3C180,0,150,30.1,150,74.6v26.3c0,44.6,30.1,74.6,74.6,74.6h26.3c44.6,0,74.6-30.1,74.6-74.6
		V72.6C325.5,28.1,295.4,0,250.9,0z M272,130c0,0-20.5,5.5-34.8,5.5c-16.5,0-42.2-3.4-42.2-49.1c0-42,27.5-49.9,45.8-49.9
		c15.7,0,25.7,5.8,25.7,5.8v16.2c0,0-13.6-5.2-25.7-5.2c-13.1,0-25.2,7.3-25.2,33.2c0,28.3,12.1,32.5,21.3,32.5
		c5.9,0,14.4-2.1,14.4-2.1v-25h-17.9l-1.4-16.1H272V130z"/>
	<path class="st0" d="M442.4,0h-26.3c-44.6,0-74.6,30.1-74.6,74.6v26.3c0,44.6,30.1,74.6,74.6,74.6h26.3c44.6,0,74.6-30.1,74.6-74.6
		V72.6C517.1,28.1,487,0,442.4,0z M439.2,95.9v38.3h-20.6V95.9l-30.3-58.1h23.7l16.9,42.7l16.8-42.7h23.8L439.2,95.9z"/>
	<path class="st0" d="M634,0h-26.3c-44.6,0-74.6,30.1-74.6,74.6v26.3c0,44.6,30.1,74.6,74.6,74.6H634c44.6,0,74.6-30.1,74.6-74.6
		V72.6C708.7,28.1,678.6,0,634,0z M648.1,134.1l-0.7-36.6c-0.3-12.7,1.8-32.1,1.8-32.1s-5.1,13.8-12,24.9l-16.1,26l-16.2-26
		c-6.2-9.9-11.8-24.8-11.8-24.8s2.1,18.2,1.8,31.9l-0.7,36.6h-20.5l3.3-96.3H594L621.1,85l27.2-47.2h16.9l3.3,96.3H648.1z"/>
</g>
<path class="st1" d="M272,130c0,0-20.5,5.5-34.8,5.5c-16.5,0-42.2-3.4-42.2-49.1c0-42,27.5-49.9,45.8-49.9c15.7,0,25.7,5.8,25.7,5.8
	v16.2c0,0-13.6-5.2-25.7-5.2c-13.1,0-25.2,7.3-25.2,33.2c0,28.3,12.1,32.5,21.3,32.5c5.9,0,14.4-2.1,14.4-2.1v-25h-17.9l-1.4-16.1
	H272V130z"/>
<polygon class="st1" points="439.2,95.9 439.2,134.1 418.5,134.1 418.5,95.9 388.3,37.8 411.9,37.8 428.8,80.5 445.6,37.8 
	469.4,37.8 "/>
<path class="st1" d="M648.1,134.1l-0.7-36.6c-0.3-12.7,1.8-32.1,1.8-32.1s-5.1,13.8-12,24.9l-16.1,26l-16.2-26
	c-6.2-9.9-11.8-24.8-11.8-24.8s2.1,18.2,1.8,31.9l-0.7,36.6h-20.5l3.3-96.3H594L621.1,85l27.2-47.2h16.9l3.3,96.3H648.1z"/>
<path class="st1" d="M96.4,89.9c0-27.9-15.7-33.5-29.7-33.5c-13,0-31,6.4-31,33.7c0,30.6,21.1,33,34,33c11.5,0,23.3-4.6,23.3-4.6
	v-14.8c0,0-15.3,5-23.3,5c-7.2,0-14.4-1.8-15.9-12.5h42.6V89.9z M53.9,84.7c0.5-12.5,5.7-15.9,12.7-15.9c5.8,0,11.7,1.7,11.7,15.9
	H53.9z"/>
</svg>
