<?xml version="1.0" encoding="UTF-8"?>
<!-- Generator: Adobe Illustrator 18.1.0, SVG Export Plug-In . SVG Version: 6.00 Build 0)  -->
<!DOCTYPE svg PUBLIC "-//W3C//DTD SVG 1.1//EN" "http://www.w3.org/Graphics/SVG/1.1/DTD/svg11.dtd">
<svg version="1.1" id="Logo_Pfad" xmlns="http://www.w3.org/2000/svg" xmlns:xlink="http://www.w3.org/1999/xlink" x="0px" y="0px" viewBox="0 0 320 86.9" enable-background="new 0 0 320 86.9" xml:space="preserve">
<g>
	<g>
		<path fill="#707F87" d="M23.2,13.4h8.7l23.2,59.4h-8.7l-6.5-17.9H14.8L8.2,72.8H0L23.2,13.4z M17.3,48.3h20.1l-9.9-27.7h-0.2    L17.3,48.3z"/>
		<path fill="#707F87" d="M57.1,13.4h26c11.8,0,18.2,6.6,18.2,17.6s-6.4,17.6-18.2,17.6H65v24.3h-7.9V13.4z M65,41.9h15.5    c8.9,0.1,13-3.8,13-10.9s-4.1-10.9-13-10.9H65V41.9z"/>
		<path fill="#707F87" d="M131.5,12c18.9,0,28.5,15,28.5,31.1s-9.6,31.1-28.5,31.1c-18.9,0-28.5-15-28.5-31.1S112.6,12,131.5,12z     M131.5,67.6c14.5,0,20.5-12.5,20.5-24.5s-6.1-24.5-20.5-24.5c-14.5,0-20.6,12.5-20.6,24.5S117,67.6,131.5,67.6z"/>
		<path fill="#008685" d="M211.6,72.8h-14.7l-19.3-59.4H191l13.2,41.8h0.2l13.4-41.8h13.5L211.6,72.8z"/>
		<path fill="#008685" d="M234.5,13.4h13.1v59.4h-13.1V13.4z"/>
		<path fill="#008685" d="M252.4,13.4H278c15.4,0,27,9.7,27,29.4c0,17.2-8.8,30-27,30h-25.6V13.4z M265.5,61.9h11.6    c7.6,0,14.8-4.7,14.8-17.8c0-12-4.2-19.6-17.1-19.6h-9.3V61.9z"/>
	</g>
	<polygon fill="#008685" points="165.1,27.8 165.1,86.7 224,86.7 224,78.8 173,78.8 173,27.8  "/>
	<polygon fill="#008685" points="319.9,58.9 319.9,0 260.9,0 260.9,7.9 311.9,7.9 311.9,58.9  "/>
	<g>
		<path fill="#008685" d="M226.7,79h3.2c2.4,0,3.4,1.7,3.4,3.8c0,2.1-1,3.8-3.4,3.8h-3.2V79z M228,85.6h1.3c2.1,0,2.6-1.2,2.6-2.7    c0-1.5-0.5-2.7-2.6-2.7H228V85.6z"/>
		<path fill="#008685" d="M234.4,79h5.5v1.2h-4.2v2h3.9v1.1h-3.9v2.3h4.3v1.2h-5.6V79z"/>
		<path fill="#008685" d="M241.2,79h3.7c1.7,0,2.5,0.8,2.5,2.1c0,1.5-1,1.9-1.3,1.9v0c0.5,0.1,1.1,0.4,1.1,1.6c0,0.9,0.1,1.7,0.4,2    h-1.4c-0.2-0.3-0.2-0.8-0.2-1.1c0-1.4-0.3-2-1.5-2h-2v3.2h-1.3V79z M242.5,82.5h2.2c0.9,0,1.3-0.4,1.3-1.2c0-1-0.6-1.2-1.3-1.2    h-2.2V82.5z"/>
		<path fill="#008685" d="M258.7,82.8c0,2.2-1.4,4-3.7,4c-2.3,0-3.7-1.8-3.7-4c0-2.2,1.4-4,3.7-4C257.3,78.8,258.7,80.6,258.7,82.8z     M252.7,82.8c0,1.5,0.7,2.9,2.3,2.9c1.6,0,2.3-1.5,2.3-2.9c0-1.5-0.7-2.9-2.3-2.9C253.4,79.9,252.7,81.4,252.7,82.8z"/>
		<path fill="#008685" d="M258.9,79h6.2v1.2h-2.4v6.5h-1.3v-6.5h-2.4V79z"/>
		<path fill="#008685" d="M271,81.4c-0.2-0.9-0.8-1.5-1.9-1.5c-1.6,0-2.3,1.5-2.3,2.9c0,1.5,0.7,2.9,2.3,2.9c1.2,0,1.9-0.9,2-2h1.3    c-0.1,1.8-1.4,3.1-3.3,3.1c-2.3,0-3.7-1.8-3.7-4c0-2.2,1.4-4,3.7-4c1.7,0,3.1,1,3.3,2.6H271z"/>
		<path fill="#008685" d="M273.5,83.2h3.1v1.2h-3.1V83.2z"/>
		<path fill="#008685" d="M278.9,84.1c0,1.2,0.9,1.6,1.9,1.6c1.2,0,1.6-0.6,1.6-1.2c0-0.6-0.3-0.8-0.6-0.9c-0.5-0.2-1.2-0.3-2.3-0.6    c-1.3-0.4-1.7-1.2-1.7-1.9c0-1.5,1.4-2.3,2.8-2.3c1.6,0,3,0.9,3,2.5h-1.3c-0.1-1-0.7-1.4-1.7-1.4c-0.6,0-1.4,0.2-1.4,1    c0,0.5,0.4,0.8,0.9,1c0.1,0,1.8,0.5,2.2,0.6c1,0.3,1.5,1.2,1.5,2c0,1.7-1.5,2.4-3.1,2.4c-1.8,0-3.2-0.8-3.2-2.7H278.9z"/>
		<path fill="#008685" d="M290.1,81.4c-0.2-0.9-0.8-1.5-1.9-1.5c-1.6,0-2.3,1.5-2.3,2.9c0,1.5,0.7,2.9,2.3,2.9c1.2,0,1.9-0.9,2-2    h1.3c-0.1,1.8-1.4,3.1-3.3,3.1c-2.3,0-3.7-1.8-3.7-4c0-2.2,1.4-4,3.7-4c1.7,0,3.1,1,3.3,2.6H290.1z"/>
		<path fill="#008685" d="M292.7,79h3.7c1.7,0,2.5,0.8,2.5,2.1c0,1.5-1,1.9-1.3,1.9v0c0.5,0.1,1.1,0.4,1.1,1.6c0,0.9,0.1,1.7,0.4,2    h-1.4c-0.2-0.3-0.2-0.8-0.2-1.1c0-1.4-0.3-2-1.5-2h-2v3.2h-1.3V79z M294,82.5h2.2c0.9,0,1.3-0.4,1.3-1.2c0-1-0.6-1.2-1.3-1.2H294    V82.5z"/>
		<path fill="#008685" d="M300.3,79h5.5v1.2h-4.2v2h3.9v1.1h-3.9v2.3h4.3v1.2h-5.6V79z"/>
		<path fill="#008685" d="M307,79h5.5v1.2h-4.2v2h3.9v1.1h-3.9v2.3h4.3v1.2H307V79z"/>
		<path fill="#008685" d="M313.8,79h1.4l3.5,5.7h0V79h1.3v7.7h-1.4l-3.5-5.7h0v5.7h-1.3V79z"/>
	</g>
</g>
</svg>