<?xml version="1.0" encoding="utf-8"?>
<!-- Generator: Adobe Illustrator 22.0.1, SVG Export Plug-In . SVG Version: 6.00 Build 0)  -->
<svg version="1.1" id="Ebene_1" xmlns="http://www.w3.org/2000/svg" xmlns:xlink="http://www.w3.org/1999/xlink" x="0px" y="0px"
	 viewBox="0 0 800 800" style="enable-background:new 0 0 800 800;" xml:space="preserve">
<style type="text/css">
	.st0{fill:#008585;}
	.st1{fill:#FFFFFF;}
</style>
<g>
	<g>
		<circle class="st0" cx="400" cy="399.5" r="394.5"/>
		<path class="st1" d="M400,799.5c-220.6,0-400-179.4-400-400s179.4-400,400-400s400,179.4,400,400S620.6,799.5,400,799.5z
			 M400,10.5c-214.5,0-389,174.5-389,389c0,214.5,174.5,389,389,389c214.5,0,389-174.5,389-389C789,185,614.5,10.5,400,10.5z"/>
	</g>
	<g>
		<path class="st1" d="M523.3,422.6c-0.7,3.1-2.1,5.5-4.4,7.2c-2.2,1.7-4.7,2.6-7.4,2.6H361l3.1,16.4h138.2c3.8,0,6.8,1.5,9.2,4.6
			s3.3,6.5,2.6,10.3l-3.1,12.8c5.1,2.4,9.2,5.9,12.1,10.5c2.9,4.6,4.4,9.7,4.4,15.2c0,7.9-2.8,14.6-8.5,20.3s-12.4,8.5-20.3,8.5
			s-14.6-2.8-20.3-8.5c-5.7-5.7-8.5-12.5-8.5-20.5s2.9-14.8,8.7-20.3H370.7c5.8,5.5,8.7,12.2,8.7,20.3s-2.8,14.9-8.5,20.5
			s-12.4,8.5-20.3,8.5c-7.9,0-14.6-2.8-20.3-8.5c-5.7-5.7-8.5-12.4-8.5-20.3c0-5.1,1.3-9.9,3.9-14.4s6.1-8,10.5-10.8l-36-176.2h-36
			c-3.4,0-6.3-1.2-8.7-3.6c-2.4-2.4-3.6-5.3-3.6-8.7v-8.2c0-3.4,1.2-6.3,3.6-8.7c2.4-2.4,5.3-3.6,8.7-3.6h52.9
			c2.7,0,5.2,0.9,7.4,2.8c2.2,1.9,3.7,4.2,4.4,6.9l4.6,23.1h201.9c4.1,0,7.4,1.5,9.8,4.6c2.4,3.1,3.1,6.5,2.1,10.3L523.3,422.6z"/>
	</g>
</g>
</svg>
