<?xml version="1.0" encoding="utf-8"?>
<!-- Generator: Adobe Illustrator 22.0.1, SVG Export Plug-In . SVG Version: 6.00 Build 0)  -->
<svg version="1.1" id="Ebene_1" xmlns="http://www.w3.org/2000/svg" xmlns:xlink="http://www.w3.org/1999/xlink" x="0px" y="0px"
	 viewBox="0 0 800 800" style="enable-background:new 0 0 800 800;" xml:space="preserve">
<style type="text/css">
	.st0{fill:#E2E3E4;}
	.st1{fill:#707070;}
</style>
<circle class="st0" cx="400" cy="400" r="400"/>
<g>
	<path class="st1" d="M538.8,264.6c3.5,0.4,6.2,2,8.2,4.7s2.9,5.7,2.9,8.8c0,49.2-12.3,94.9-36.9,137.1
		c-24.2,41-56.8,73.6-97.9,97.9c-42.2,24.6-87.9,36.9-137.1,36.9c-3.1,0-6.1-1-8.8-2.9s-4.3-4.7-4.7-8.2l-14.1-60.9
		c-0.8-3.1-0.4-6.2,1.2-9.4s3.9-5.3,7-6.4l65.6-28.1c2.7-1.2,5.7-1.5,8.8-0.9s5.7,2.2,7.6,5l28.7,35.2c23-10.5,43.5-24.8,61.2-42.8
		s31.9-38.3,42.5-60.9L438,340.1c-2.3-2-3.9-4.4-4.7-7.3s-0.6-6,0.6-9.1l28.1-65.6c1.2-2.7,3.3-4.9,6.4-6.4s6.2-2,9.4-1.2
		L538.8,264.6z"/>
</g>
</svg>
