<?xml version="1.0" encoding="utf-8"?>
<!-- Generator: Adobe Illustrator 22.0.1, SVG Export Plug-In . SVG Version: 6.00 Build 0)  -->
<svg version="1.1" id="Ebene_1" xmlns="http://www.w3.org/2000/svg" xmlns:xlink="http://www.w3.org/1999/xlink" x="0px" y="0px"
	 viewBox="0 0 800 800" style="enable-background:new 0 0 800 800;" xml:space="preserve">
<style type="text/css">
	.st0{fill:#E2E3E4;}
	.st1{fill:#707070;}
</style>
<circle class="st0" cx="400" cy="400" r="400"/>
<g>
	<path class="st1" d="M566.4,397.7c1.2,1.2,1.9,2.7,2.1,4.7s-0.3,3.7-1.5,5.3l-14.6,18.2c-1.2,1.6-2.7,2.3-4.7,2.3s-3.7-0.6-5.3-1.8
		L404.7,313.3c-1.6-1.2-3.1-1.8-4.7-1.8s-3.1,0.6-4.7,1.8L257.6,426.4c-1.6,1.2-3.3,1.8-5.3,1.8s-3.5-0.8-4.7-2.3L233,407.6
		c-1.2-1.6-1.7-3.3-1.5-5.3s0.9-3.5,2.1-4.7l148.8-122.5c5.1-4.3,10.9-6.4,17.6-6.4s12.7,2.1,18.2,6.4l52.1,43.4v-42.8
		c0-2,0.7-3.6,2.1-5s3-2.1,5-2.1h32.8c2,0,3.6,0.7,5,2.1s2.1,3,2.1,5v81.4L566.4,397.7z M517.2,433.4c0-2.3-0.8-4.3-2.3-5.9
		l-110.2-90.2c-1.6-1.2-3.1-1.8-4.7-1.8s-3.1,0.6-4.7,1.8l-110.2,90.2c-1.6,1.6-2.3,3.5-2.3,5.9v83.8c0,3.9,1.4,7.2,4.1,10
		s6.1,4.1,10,4.1h68c2,0,3.6-0.7,5-2.1s2.1-3,2.1-5v-65.6c0-2,0.7-3.6,2.1-5s3-2.1,5-2.1h42.2c2,0,3.6,0.7,5,2.1s2.1,3,2.1,5v65.6
		c0,2,0.7,3.6,2.1,5s3,2.1,5,2.1h68c3.9,0,7.2-1.4,10-4.1s4.1-6.1,4.1-10V433.4z"/>
</g>
</svg>
