<?xml version="1.0" encoding="utf-8"?>
<!-- Generator: Adobe Illustrator 22.0.1, SVG Export Plug-In . SVG Version: 6.00 Build 0)  -->
<svg version="1.1" id="Ebene_1" xmlns="http://www.w3.org/2000/svg" xmlns:xlink="http://www.w3.org/1999/xlink" x="0px" y="0px"
	 viewBox="0 0 800 800" style="enable-background:new 0 0 800 800;" xml:space="preserve">
<style type="text/css">
	.st0{fill:#E2E3E4;}
	.st1{fill:#707070;}
</style>
<circle class="st0" cx="400" cy="400" r="400"/>
<g>
	<path class="st1" d="M367.2,498.4v-84.4h-11.7c-3.1,0-5.9-1.2-8.2-3.5s-3.5-5.1-3.5-8.2v-28.1c0-3.1,1.2-5.9,3.5-8.2
		s5.1-3.5,8.2-3.5h65.6c3.1,0,5.9,1.2,8.2,3.5s3.5,5.1,3.5,8.2v124.2h11.7c3.1,0,5.9,1.2,8.2,3.5s3.5,5.1,3.5,8.2v28.1
		c0,3.1-1.2,5.9-3.5,8.2s-5.1,3.5-8.2,3.5h-89.1c-3.1,0-5.9-1.2-8.2-3.5s-3.5-5.1-3.5-8.2v-28.1c0-3.1,1.2-5.9,3.5-8.2
		s5.1-3.5,8.2-3.5H367.2z M370.1,262.3c-8.2,8.2-12.3,18.2-12.3,29.9s4.1,21.7,12.3,29.9s18.2,12.3,29.9,12.3s21.7-4.1,29.9-12.3
		s12.3-18.2,12.3-29.9s-4.1-21.7-12.3-29.9S411.7,250,400,250S378.3,254.1,370.1,262.3z"/>
</g>
</svg>
