<?xml version="1.0" encoding="utf-8"?>
<!-- Generator: Adobe Illustrator 22.0.1, SVG Export Plug-In . SVG Version: 6.00 Build 0)  -->
<svg version="1.1" id="Ebene_1" xmlns="http://www.w3.org/2000/svg" xmlns:xlink="http://www.w3.org/1999/xlink" x="0px" y="0px"
	 viewBox="0 0 800 800" style="enable-background:new 0 0 800 800;" xml:space="preserve">
<style type="text/css">
	.st0{fill:#008585;}
	.st1{fill:#FFFFFF;}
</style>
<g>
	<g>
		<circle class="st0" cx="400" cy="400" r="394.5"/>
		<path class="st1" d="M400,800C179.4,800,0,620.6,0,400S179.4,0,400,0s400,179.4,400,400S620.6,800,400,800z M400,11
			C185.5,11,11,185.5,11,400s174.5,389,389,389s389-174.5,389-389S614.5,11,400,11z"/>
	</g>
	<g>
		<path class="st1" d="M554.6,296.2c3.1,1.4,5.5,3.4,7.2,6.2c1.7,2.7,2.6,5.8,2.6,9.2v162.8c0,4.8-1.6,8.7-4.9,11.8
			c-3.3,3.1-7.1,4.6-11.6,4.6c-1.7,0-3.6-0.3-5.7-1c-14.7-4.5-30.5-6.7-47.3-6.7c-14,0-30,1.5-47.8,4.6c-10.3,2.1-26,5.7-47.3,11
			c-21.2,5.3-37,9-47.3,11c-17.8,3.4-33.7,5.1-47.8,5.1c-21.6,0-41.4-3.8-59.6-11.3c-3.1-1.4-5.5-3.4-7.2-6.2
			c-1.7-2.7-2.6-5.8-2.6-9.2V325.5c0-4.8,1.6-8.7,4.9-11.8c3.3-3.1,7.1-4.6,11.6-4.6c1.7,0,3.6,0.3,5.7,1
			c14.7,4.5,30.5,6.7,47.3,6.7c14,0,30-1.5,47.8-4.6c10.3-2.1,26-5.7,47.3-11c21.2-5.3,37-9,47.3-11c17.8-3.4,33.7-5.1,47.8-5.1
			C516.6,284.9,536.5,288.7,554.6,296.2z M260.3,336.3v31.3c7.9,0,14.8-2.6,20.8-7.7c6-5.1,9.8-11.5,11.6-19
			C280.3,340.2,269.5,338.7,260.3,336.3z M260.3,482.7c10.3,3.8,21.2,6.2,32.9,7.2c-0.3-8.9-3.7-16.4-10-22.6
			c-6.3-6.2-14-9.2-22.9-9.2V482.7z M400,449.3c11.3,0,21-4.8,29-14.4c8-9.6,12.1-21.2,12.1-34.9s-4-25.3-12.1-34.9
			c-8-9.6-17.7-14.4-29-14.4s-21,4.8-29,14.4c-8,9.6-12.1,21.2-12.1,34.9s4,25.3,12.1,34.9C379,444.5,388.7,449.3,400,449.3z
			 M539.7,342.5v-25.2c-8.9-3.4-18.5-5.7-28.8-6.7c0.3,8.2,3.3,15.3,8.7,21.3C525.2,337.9,531.8,341.4,539.7,342.5z M539.7,463.7
			v-29.8c-6.8,1-12.8,3.9-18,8.5s-8.4,10.2-9.8,16.7C522.6,460.1,531.8,461.6,539.7,463.7z"/>
	</g>
</g>
</svg>
