<?xml version="1.0" encoding="utf-8"?>
<!-- Generator: Adobe Illustrator 22.0.1, SVG Export Plug-In . SVG Version: 6.00 Build 0)  -->
<svg version="1.1" id="Ebene_1" xmlns="http://www.w3.org/2000/svg" xmlns:xlink="http://www.w3.org/1999/xlink" x="0px" y="0px"
	 viewBox="0 0 800 800" style="enable-background:new 0 0 800 800;" xml:space="preserve">
<style type="text/css">
	.st0{fill:#008585;}
	.st1{fill:#FFFFFF;}
</style>
<g>
	<g>
		<circle class="st0" cx="400" cy="400" r="394.5"/>
		<path class="st1" d="M400,800C179.4,800,0,620.6,0,400S179.4,0,400,0s400,179.4,400,400S620.6,800,400,800z M400,11
			C185.5,11,11,185.5,11,400s174.5,389,389,389s389-174.5,389-389S614.5,11,400,11z"/>
	</g>
	<g>
		<path class="st1" d="M530.2,490.4c0,6.8-2.4,12.7-7.2,17.5c-4.8,4.8-10.6,7.2-17.5,7.2H291.9c-6.8,0-12.7-2.4-17.5-7.2
			c-4.8-4.8-7.2-10.6-7.2-17.5V342.5c0-6.8,2.4-12.7,7.2-17.5s10.6-7.2,17.5-7.2h45.2l6.2-17c2.1-4.8,5.1-8.6,9.2-11.6
			s8.7-4.4,13.9-4.4h64.7c5.1,0,9.8,1.5,13.9,4.4s7.2,6.8,9.2,11.6l6.2,17h45.2c6.8,0,12.7,2.4,17.5,7.2c4.8,4.8,7.2,10.6,7.2,17.5
			V490.4z M452.1,385.4c-5.5-9.4-12.9-16.9-22.3-22.3s-19.8-8.2-31.1-8.2s-21.7,2.7-31.1,8.2s-16.9,12.9-22.3,22.3
			s-8.2,19.8-8.2,31.1s2.7,21.7,8.2,31.1s12.9,16.9,22.3,22.3c9.4,5.5,19.8,8.2,31.1,8.2s21.7-2.7,31.1-8.2
			c9.4-5.5,16.9-12.9,22.3-22.3c5.5-9.4,8.2-19.8,8.2-31.1S457.6,394.8,452.1,385.4z M430.6,448.3c-8.9,8.9-19.5,13.4-31.8,13.4
			s-22.9-4.5-31.8-13.4c-8.9-8.9-13.4-19.5-13.4-31.8s4.5-22.9,13.4-31.8s19.5-13.4,31.8-13.4s22.9,4.5,31.8,13.4
			c8.9,8.9,13.4,19.5,13.4,31.8S439.5,439.4,430.6,448.3z"/>
	</g>
</g>
</svg>
