<?xml version="1.0" encoding="utf-8"?>
<!-- Generator: Adobe Illustrator 22.0.1, SVG Export Plug-In . SVG Version: 6.00 Build 0)  -->
<svg version="1.1" id="Ebene_1" xmlns="http://www.w3.org/2000/svg" xmlns:xlink="http://www.w3.org/1999/xlink" x="0px" y="0px"
	 viewBox="0 0 360 360" style="enable-background:new 0 0 360 360;" xml:space="preserve">
<style type="text/css">
	.st0{fill:#272F41;}
</style>
<title>portvier-favicon</title>
<path class="st0" d="M187.4,62.7l-27.5,153.7c8.5,7.5,19.3,11.9,30.7,12.4c20.8-19.2,29.1-69.7,29.1-102.9
	c2.5-24.8-3.7-49.8-17.4-70.6L187.4,62.7z M134.6,360H41.1L96.9,44l-35,10.4l-2.5-9.9L183.1,1.6l13.3,11.3L189.9,49l76.7-49
	c31.1,7.4,51,40.6,51,83.5c0.3,61.3-34.9,117.3-90.3,143.5l-56.4,26.6l-16.7-7.4L134.6,360z"/>
</svg>
