<svg id="Ebene_1" data-name="Ebene 1" xmlns="http://www.w3.org/2000/svg" viewBox="0 0 32 32"><defs><style>.cls-1{fill:#272f41;}.cls-2{fill:#f9f7f9;}</style></defs><title>portvier-favicon</title><rect class="cls-1" width="32" height="32"/><path class="cls-2" d="M15.73,13.33l-1.22,6.81a2.19,2.19,0,0,0,1.36.55c.92-.85,1.29-3.09,1.29-4.56A4.83,4.83,0,0,0,16.39,13ZM13.39,26.5H9.25l2.47-14-1.55.46-.11-.44,5.48-1.9.59.5-.29,1.6,3.4-2.17c1.38.33,2.26,1.8,2.26,3.7a7,7,0,0,1-4,6.36L15,21.79l-.74-.33Z"/></svg>