<?xml version="1.0" encoding="utf-8"?>
<!-- Generator: Adobe Illustrator 23.0.1, SVG Export Plug-In . SVG Version: 6.00 Build 0)  -->
<svg version="1.1" id="Ebene_1" xmlns="http://www.w3.org/2000/svg" xmlns:xlink="http://www.w3.org/1999/xlink" x="0px" y="0px"
	 viewBox="0 0 800 800" style="enable-background:new 0 0 800 800;" xml:space="preserve">
<style type="text/css">
	.st0{fill:#008585;}
	.st1{fill:#FFFFFF;}
</style>
<g>
	<g>
		<circle class="st0" cx="400" cy="399.5" r="394.5"/>
		<path class="st1" d="M400,799.5c-220.6,0-400-179.4-400-400s179.4-400,400-400s400,179.4,400,400S620.6,799.5,400,799.5z
			 M400,10.5c-214.5,0-389,174.5-389,389s174.5,389,389,389s389-174.5,389-389S614.5,10.5,400,10.5z"/>
	</g>
	<path class="st1" d="M519.9,469.1v42.1c0,11.2-9.1,20.2-20.2,20.2H300.3c-11.2,0-20.2-9.1-20.2-20.2v-42.1
		c0-11.2,9.1-20.2,20.2-20.2c11.2,0,20.2,9.1,20.2,20.2V491h158.9v-21.9c0-11.2,9.1-20.2,20.2-20.2
		C510.9,448.9,519.9,458,519.9,469.1z M323.2,326.3h22.6c2.2,0,4,1.8,4,4v113.7c0,2.2,1.8,4,4,4h92.4c2.2,0,4-1.8,4-4V330.4
		c0-2.2,1.8-4,4-4h22.6c4,0,5.6-5.3,2.2-7.4l-76.8-49.7c-1.3-0.9-3.1-0.9-4.4,0L321,318.9C317.6,321.1,319.1,326.3,323.2,326.3z"/>
</g>
</svg>
